<?xml version="1.0" encoding="utf-8" standalone="no"?>
<!DOCTYPE svg PUBLIC "-//W3C//DTD SVG 1.1//EN"
  "http://www.w3.org/Graphics/SVG/1.1/DTD/svg11.dtd">
<svg xmlns:xlink="http://www.w3.org/1999/xlink" width="504pt" height="504pt" viewBox="0 0 504 504" xmlns="http://www.w3.org/2000/svg" version="1.1">
 <metadata>
  <rdf:RDF xmlns:dc="http://purl.org/dc/elements/1.1/" xmlns:cc="http://creativecommons.org/ns#" xmlns:rdf="http://www.w3.org/1999/02/22-rdf-syntax-ns#">
   <cc:Work>
    <dc:type rdf:resource="http://purl.org/dc/dcmitype/StillImage"/>
    <dc:date>2022-03-23T19:29:31.333156</dc:date>
    <dc:format>image/svg+xml</dc:format>
    <dc:creator>
     <cc:Agent>
      <dc:title>Matplotlib v3.5.1, https://matplotlib.org/</dc:title>
     </cc:Agent>
    </dc:creator>
   </cc:Work>
  </rdf:RDF>
 </metadata>
 <defs>
  <style type="text/css">*{stroke-linejoin: round; stroke-linecap: butt}</style>
 </defs>
 <g id="figure_1">
  <g id="patch_1">
   <path d="M 0 504 
L 504 504 
L 504 0 
L 0 0 
z
" style="fill: #ffffff"/>
  </g>
  <g id="axes_1">
   <g id="patch_2">
    <path d="M 136.336742 369.555819 
Q 254.428019 254.512059 371.318042 140.638552 
" clip-path="url(#pc940ef1992)" style="fill: none; stroke: #000000; stroke-width: 1.5; stroke-linecap: round"/>
    <path d="M 367.057279 141.99719 
L 371.318042 140.638552 
L 369.848495 144.862346 
L 367.057279 141.99719 
z
" clip-path="url(#pc940ef1992)" style="stroke: #000000; stroke-width: 1.5; stroke-linecap: round"/>
   </g>
   <g id="PathCollection_1">
    <path d="M 258.3 82.776364 
C 259.626015 82.776364 260.897899 82.249532 261.835534 81.311898 
C 262.773168 80.374263 263.3 79.102379 263.3 77.776364 
C 263.3 76.450348 262.773168 75.178464 261.835534 74.24083 
C 260.897899 73.303195 259.626015 72.776364 258.3 72.776364 
C 256.973985 72.776364 255.702101 73.303195 254.764466 74.24083 
C 253.826832 75.178464 253.3 76.450348 253.3 77.776364 
C 253.3 79.102379 253.826832 80.374263 254.764466 81.311898 
C 255.702101 82.249532 256.973985 82.776364 258.3 82.776364 
z
" clip-path="url(#pc940ef1992)" style="fill: #ff7e79; stroke: #000000"/>
    <path d="M 132.756405 133.43624 
C 134.082421 133.43624 135.354304 132.909408 136.291939 131.971774 
C 137.229574 131.034139 137.756405 129.762255 137.756405 128.43624 
C 137.756405 127.110224 137.229574 125.83834 136.291939 124.900706 
C 135.354304 123.963071 134.082421 123.43624 132.756405 123.43624 
C 131.43039 123.43624 130.158506 123.963071 129.220871 124.900706 
C 128.283237 125.83834 127.756405 127.110224 127.756405 128.43624 
C 127.756405 129.762255 128.283237 131.034139 129.220871 131.971774 
C 130.158506 132.909408 131.43039 133.43624 132.756405 133.43624 
z
" clip-path="url(#pc940ef1992)" style="fill: #ff7e79; stroke: #000000"/>
    <path d="M 80.754545 255.74 
C 82.080561 255.74 83.352445 255.213168 84.290079 254.275534 
C 85.227714 253.337899 85.754545 252.066015 85.754545 250.74 
C 85.754545 249.413984 85.227714 248.142101 84.290079 247.204466 
C 83.352445 246.266832 82.080561 245.74 80.754545 245.74 
C 79.42853 245.74 78.156646 246.266832 77.219012 247.204466 
C 76.281377 248.142101 75.754545 249.413984 75.754545 250.74 
C 75.754545 252.066015 76.281377 253.337899 77.219012 254.275534 
C 78.156646 255.213168 79.42853 255.74 80.754545 255.74 
z
" clip-path="url(#pc940ef1992)" style="fill: #ff7e79; stroke: #000000"/>
    <path d="M 132.756405 378.04376 
C 134.082421 378.04376 135.354304 377.516929 136.291939 376.579294 
C 137.229574 375.64166 137.756405 374.369776 137.756405 373.04376 
C 137.756405 371.717745 137.229574 370.445861 136.291939 369.508226 
C 135.354304 368.570592 134.082421 368.04376 132.756405 368.04376 
C 131.43039 368.04376 130.158506 368.570592 129.220871 369.508226 
C 128.283237 370.445861 127.756405 371.717745 127.756405 373.04376 
C 127.756405 374.369776 128.283237 375.64166 129.220871 376.579294 
C 130.158506 377.516929 131.43039 378.04376 132.756405 378.04376 
z
" clip-path="url(#pc940ef1992)" style="fill: #ff7e79; stroke: #000000"/>
    <path d="M 258.3 428.703636 
C 259.626015 428.703636 260.897899 428.176805 261.835534 427.23917 
C 262.773168 426.301536 263.3 425.029652 263.3 423.703636 
C 263.3 422.377621 262.773168 421.105737 261.835534 420.168102 
C 260.897899 419.230468 259.626015 418.703636 258.3 418.703636 
C 256.973984 418.703636 255.702101 419.230468 254.764466 420.168102 
C 253.826832 421.105737 253.3 422.377621 253.3 423.703636 
C 253.3 425.029652 253.826832 426.301536 254.764466 427.23917 
C 255.702101 428.176805 256.973984 428.703636 258.3 428.703636 
z
" clip-path="url(#pc940ef1992)" style="fill: #ff7e79; stroke: #000000"/>
    <path d="M 383.843595 378.04376 
C 385.16961 378.04376 386.441494 377.516929 387.379129 376.579294 
C 388.316763 375.64166 388.843595 374.369776 388.843595 373.04376 
C 388.843595 371.717745 388.316763 370.445861 387.379129 369.508226 
C 386.441494 368.570592 385.16961 368.04376 383.843595 368.04376 
C 382.517579 368.04376 381.245696 368.570592 380.308061 369.508226 
C 379.370426 370.445861 378.843595 371.717745 378.843595 373.04376 
C 378.843595 374.369776 379.370426 375.64166 380.308061 376.579294 
C 381.245696 377.516929 382.517579 378.04376 383.843595 378.04376 
z
" clip-path="url(#pc940ef1992)" style="fill: #ff7e79; stroke: #000000"/>
    <path d="M 435.845455 255.74 
C 437.17147 255.74 438.443354 255.213168 439.380988 254.275534 
C 440.318623 253.337899 440.845455 252.066016 440.845455 250.74 
C 440.845455 249.413985 440.318623 248.142101 439.380988 247.204466 
C 438.443354 246.266832 437.17147 245.74 435.845455 245.74 
C 434.519439 245.74 433.247555 246.266832 432.309921 247.204466 
C 431.372286 248.142101 430.845455 249.413985 430.845455 250.74 
C 430.845455 252.066016 431.372286 253.337899 432.309921 254.275534 
C 433.247555 255.213168 434.519439 255.74 435.845455 255.74 
z
" clip-path="url(#pc940ef1992)" style="fill: #ff7e79; stroke: #000000"/>
    <path d="M 383.843595 144.247628 
C 388.036824 144.247628 392.058874 142.581641 395.023935 139.61658 
C 397.988996 136.651519 399.654983 132.629469 399.654983 128.43624 
C 399.654983 124.243011 397.988996 120.220961 395.023935 117.2559 
C 392.058874 114.290839 388.036824 112.624852 383.843595 112.624852 
C 379.650366 112.624852 375.628316 114.290839 372.663255 117.2559 
C 369.698194 120.220961 368.032207 124.243011 368.032207 128.43624 
C 368.032207 132.629469 369.698194 136.651519 372.663255 139.61658 
C 375.628316 142.581641 379.650366 144.247628 383.843595 144.247628 
z
" clip-path="url(#pc940ef1992)" style="fill: #ff7e79; stroke: #000000"/>
   </g>
   <g id="text_1">
    <g clip-path="url(#pc940ef1992)">
     <!-- 0 -->
     <g transform="translate(254.4825 81.087614)scale(0.12 -0.12)">
      <defs>
       <path id="DejaVuSans-30" d="M 2034 4250 
Q 1547 4250 1301 3770 
Q 1056 3291 1056 2328 
Q 1056 1369 1301 889 
Q 1547 409 2034 409 
Q 2525 409 2770 889 
Q 3016 1369 3016 2328 
Q 3016 3291 2770 3770 
Q 2525 4250 2034 4250 
z
M 2034 4750 
Q 2819 4750 3233 4129 
Q 3647 3509 3647 2328 
Q 3647 1150 3233 529 
Q 2819 -91 2034 -91 
Q 1250 -91 836 529 
Q 422 1150 422 2328 
Q 422 3509 836 4129 
Q 1250 4750 2034 4750 
z
" transform="scale(0.015625)"/>
      </defs>
      <use xlink:href="#DejaVuSans-30"/>
     </g>
    </g>
   </g>
   <g id="text_2">
    <g clip-path="url(#pc940ef1992)">
     <!-- 1 -->
     <g transform="translate(128.938905 131.74749)scale(0.12 -0.12)">
      <defs>
       <path id="DejaVuSans-31" d="M 794 531 
L 1825 531 
L 1825 4091 
L 703 3866 
L 703 4441 
L 1819 4666 
L 2450 4666 
L 2450 531 
L 3481 531 
L 3481 0 
L 794 0 
L 794 531 
z
" transform="scale(0.015625)"/>
      </defs>
      <use xlink:href="#DejaVuSans-31"/>
     </g>
    </g>
   </g>
   <g id="text_3">
    <g clip-path="url(#pc940ef1992)">
     <!-- 2 -->
     <g transform="translate(76.937045 254.05125)scale(0.12 -0.12)">
      <defs>
       <path id="DejaVuSans-32" d="M 1228 531 
L 3431 531 
L 3431 0 
L 469 0 
L 469 531 
Q 828 903 1448 1529 
Q 2069 2156 2228 2338 
Q 2531 2678 2651 2914 
Q 2772 3150 2772 3378 
Q 2772 3750 2511 3984 
Q 2250 4219 1831 4219 
Q 1534 4219 1204 4116 
Q 875 4013 500 3803 
L 500 4441 
Q 881 4594 1212 4672 
Q 1544 4750 1819 4750 
Q 2544 4750 2975 4387 
Q 3406 4025 3406 3419 
Q 3406 3131 3298 2873 
Q 3191 2616 2906 2266 
Q 2828 2175 2409 1742 
Q 1991 1309 1228 531 
z
" transform="scale(0.015625)"/>
      </defs>
      <use xlink:href="#DejaVuSans-32"/>
     </g>
    </g>
   </g>
   <g id="text_4">
    <g clip-path="url(#pc940ef1992)">
     <!-- 3 -->
     <g transform="translate(128.938905 376.35501)scale(0.12 -0.12)">
      <defs>
       <path id="DejaVuSans-33" d="M 2597 2516 
Q 3050 2419 3304 2112 
Q 3559 1806 3559 1356 
Q 3559 666 3084 287 
Q 2609 -91 1734 -91 
Q 1441 -91 1130 -33 
Q 819 25 488 141 
L 488 750 
Q 750 597 1062 519 
Q 1375 441 1716 441 
Q 2309 441 2620 675 
Q 2931 909 2931 1356 
Q 2931 1769 2642 2001 
Q 2353 2234 1838 2234 
L 1294 2234 
L 1294 2753 
L 1863 2753 
Q 2328 2753 2575 2939 
Q 2822 3125 2822 3475 
Q 2822 3834 2567 4026 
Q 2313 4219 1838 4219 
Q 1578 4219 1281 4162 
Q 984 4106 628 3988 
L 628 4550 
Q 988 4650 1302 4700 
Q 1616 4750 1894 4750 
Q 2613 4750 3031 4423 
Q 3450 4097 3450 3541 
Q 3450 3153 3228 2886 
Q 3006 2619 2597 2516 
z
" transform="scale(0.015625)"/>
      </defs>
      <use xlink:href="#DejaVuSans-33"/>
     </g>
    </g>
   </g>
   <g id="text_5">
    <g clip-path="url(#pc940ef1992)">
     <!-- 4 -->
     <g transform="translate(254.4825 427.014886)scale(0.12 -0.12)">
      <defs>
       <path id="DejaVuSans-34" d="M 2419 4116 
L 825 1625 
L 2419 1625 
L 2419 4116 
z
M 2253 4666 
L 3047 4666 
L 3047 1625 
L 3713 1625 
L 3713 1100 
L 3047 1100 
L 3047 0 
L 2419 0 
L 2419 1100 
L 313 1100 
L 313 1709 
L 2253 4666 
z
" transform="scale(0.015625)"/>
      </defs>
      <use xlink:href="#DejaVuSans-34"/>
     </g>
    </g>
   </g>
   <g id="text_6">
    <g clip-path="url(#pc940ef1992)">
     <!-- 5 -->
     <g transform="translate(380.026095 376.35501)scale(0.12 -0.12)">
      <defs>
       <path id="DejaVuSans-35" d="M 691 4666 
L 3169 4666 
L 3169 4134 
L 1269 4134 
L 1269 2991 
Q 1406 3038 1543 3061 
Q 1681 3084 1819 3084 
Q 2600 3084 3056 2656 
Q 3513 2228 3513 1497 
Q 3513 744 3044 326 
Q 2575 -91 1722 -91 
Q 1428 -91 1123 -41 
Q 819 9 494 109 
L 494 744 
Q 775 591 1075 516 
Q 1375 441 1709 441 
Q 2250 441 2565 725 
Q 2881 1009 2881 1497 
Q 2881 1984 2565 2268 
Q 2250 2553 1709 2553 
Q 1456 2553 1204 2497 
Q 953 2441 691 2322 
L 691 4666 
z
" transform="scale(0.015625)"/>
      </defs>
      <use xlink:href="#DejaVuSans-35"/>
     </g>
    </g>
   </g>
   <g id="text_7">
    <g clip-path="url(#pc940ef1992)">
     <!-- 6 -->
     <g transform="translate(432.027955 254.05125)scale(0.12 -0.12)">
      <defs>
       <path id="DejaVuSans-36" d="M 2113 2584 
Q 1688 2584 1439 2293 
Q 1191 2003 1191 1497 
Q 1191 994 1439 701 
Q 1688 409 2113 409 
Q 2538 409 2786 701 
Q 3034 994 3034 1497 
Q 3034 2003 2786 2293 
Q 2538 2584 2113 2584 
z
M 3366 4563 
L 3366 3988 
Q 3128 4100 2886 4159 
Q 2644 4219 2406 4219 
Q 1781 4219 1451 3797 
Q 1122 3375 1075 2522 
Q 1259 2794 1537 2939 
Q 1816 3084 2150 3084 
Q 2853 3084 3261 2657 
Q 3669 2231 3669 1497 
Q 3669 778 3244 343 
Q 2819 -91 2113 -91 
Q 1303 -91 875 529 
Q 447 1150 447 2328 
Q 447 3434 972 4092 
Q 1497 4750 2381 4750 
Q 2619 4750 2861 4703 
Q 3103 4656 3366 4563 
z
" transform="scale(0.015625)"/>
      </defs>
      <use xlink:href="#DejaVuSans-36"/>
     </g>
    </g>
   </g>
   <g id="text_8">
    <g clip-path="url(#pc940ef1992)">
     <!-- 7 -->
     <g transform="translate(380.026095 131.74749)scale(0.12 -0.12)">
      <defs>
       <path id="DejaVuSans-37" d="M 525 4666 
L 3525 4666 
L 3525 4397 
L 1831 0 
L 1172 0 
L 2766 4134 
L 525 4134 
L 525 4666 
z
" transform="scale(0.015625)"/>
      </defs>
      <use xlink:href="#DejaVuSans-37"/>
     </g>
    </g>
   </g>
  </g>
 </g>
 <defs>
  <clipPath id="pc940ef1992">
   <rect x="63" y="60.48" width="390.6" height="380.52"/>
  </clipPath>
 </defs>
</svg>
