<?xml version="1.0" encoding="utf-8" standalone="no"?>
<!DOCTYPE svg PUBLIC "-//W3C//DTD SVG 1.1//EN"
  "http://www.w3.org/Graphics/SVG/1.1/DTD/svg11.dtd">
<svg xmlns:xlink="http://www.w3.org/1999/xlink" width="504pt" height="504pt" viewBox="0 0 504 504" xmlns="http://www.w3.org/2000/svg" version="1.1">
 <metadata>
  <rdf:RDF xmlns:dc="http://purl.org/dc/elements/1.1/" xmlns:cc="http://creativecommons.org/ns#" xmlns:rdf="http://www.w3.org/1999/02/22-rdf-syntax-ns#">
   <cc:Work>
    <dc:type rdf:resource="http://purl.org/dc/dcmitype/StillImage"/>
    <dc:date>2022-03-23T19:29:30.905833</dc:date>
    <dc:format>image/svg+xml</dc:format>
    <dc:creator>
     <cc:Agent>
      <dc:title>Matplotlib v3.5.1, https://matplotlib.org/</dc:title>
     </cc:Agent>
    </dc:creator>
   </cc:Work>
  </rdf:RDF>
 </metadata>
 <defs>
  <style type="text/css">*{stroke-linejoin: round; stroke-linecap: butt}</style>
 </defs>
 <g id="figure_1">
  <g id="patch_1">
   <path d="M 0 504 
L 504 504 
L 504 0 
L 0 0 
z
" style="fill: #ffffff"/>
  </g>
  <g id="axes_1">
   <g id="patch_2">
    <path d="M 253.664143 95.371011 
Q 206.249751 114.503865 160.390564 133.009156 
" clip-path="url(#pe0e76fc33f)" style="fill: none; stroke: #000000; stroke-width: 1.5; stroke-linecap: round"/>
    <path d="M 164.848358 133.367021 
L 160.390564 133.009156 
L 163.351533 129.657639 
L 164.848358 133.367021 
z
" clip-path="url(#pe0e76fc33f)" style="stroke: #000000; stroke-width: 1.5; stroke-linecap: round"/>
   </g>
   <g id="patch_3">
    <path d="M 98.852786 255.344442 
Q 118.418144 301.360427 137.327295 345.833073 
" clip-path="url(#pe0e76fc33f)" style="fill: none; stroke: #000000; stroke-width: 1.5; stroke-linecap: round"/>
    <path d="M 137.602691 341.369425 
L 137.327295 345.833073 
L 133.921614 342.934568 
L 137.602691 341.369425 
z
" clip-path="url(#pe0e76fc33f)" style="stroke: #000000; stroke-width: 1.5; stroke-linecap: round"/>
   </g>
   <g id="patch_4">
    <path d="M 262.935857 406.108989 
Q 310.350249 386.976135 356.209436 368.470844 
" clip-path="url(#pe0e76fc33f)" style="fill: none; stroke: #000000; stroke-width: 1.5; stroke-linecap: round"/>
    <path d="M 351.751642 368.112979 
L 356.209436 368.470844 
L 353.248467 371.822361 
L 351.751642 368.112979 
z
" clip-path="url(#pe0e76fc33f)" style="stroke: #000000; stroke-width: 1.5; stroke-linecap: round"/>
   </g>
   <g id="patch_5">
    <path d="M 417.747214 246.135558 
Q 398.181856 200.119573 379.272705 155.646927 
" clip-path="url(#pe0e76fc33f)" style="fill: none; stroke: #000000; stroke-width: 1.5; stroke-linecap: round"/>
    <path d="M 378.997309 160.110575 
L 379.272705 155.646927 
L 382.678386 158.545432 
L 378.997309 160.110575 
z
" clip-path="url(#pe0e76fc33f)" style="stroke: #000000; stroke-width: 1.5; stroke-linecap: round"/>
   </g>
   <g id="PathCollection_1">
    <path d="M 258.3 98.500331 
C 259.626015 98.500331 260.897899 97.973499 261.835534 97.035864 
C 262.773168 96.09823 263.3 94.826346 263.3 93.500331 
C 263.3 92.174315 262.773168 90.902431 261.835534 89.964797 
C 260.897899 89.027162 259.626015 88.500331 258.3 88.500331 
C 256.973985 88.500331 255.702101 89.027162 254.764466 89.964797 
C 253.826832 90.902431 253.3 92.174315 253.3 93.500331 
C 253.3 94.826346 253.826832 96.09823 254.764466 97.035864 
C 255.702101 97.973499 256.973985 98.500331 258.3 98.500331 
z
" clip-path="url(#pe0e76fc33f)" style="fill: #ff7e79; stroke: #000000"/>
    <path d="M 144.169459 155.366152 
C 148.362688 155.366152 152.384738 153.700164 155.349799 150.735103 
C 158.31486 147.770043 159.980848 143.747993 159.980848 139.554763 
C 159.980848 135.361534 158.31486 131.339484 155.349799 128.374424 
C 152.384738 125.409363 148.362688 123.743375 144.169459 123.743375 
C 139.97623 123.743375 135.95418 125.409363 132.989119 128.374424 
C 130.024059 131.339484 128.358071 135.361534 128.358071 139.554763 
C 128.358071 143.747993 130.024059 147.770043 132.989119 150.735103 
C 135.95418 153.700164 139.97623 155.366152 144.169459 155.366152 
z
" clip-path="url(#pe0e76fc33f)" style="fill: #ff7e79; stroke: #000000"/>
    <path d="M 96.895041 255.74 
C 98.221057 255.74 99.492941 255.213168 100.430575 254.275534 
C 101.36821 253.337899 101.895041 252.066015 101.895041 250.74 
C 101.895041 249.413984 101.36821 248.142101 100.430575 247.204466 
C 99.492941 246.266832 98.221057 245.74 96.895041 245.74 
C 95.569026 245.74 94.297142 246.266832 93.359507 247.204466 
C 92.421873 248.142101 91.895041 249.413984 91.895041 250.74 
C 91.895041 252.066015 92.421873 253.337899 93.359507 254.275534 
C 94.297142 255.213168 95.569026 255.74 96.895041 255.74 
z
" clip-path="url(#pe0e76fc33f)" style="fill: #ff7e79; stroke: #000000"/>
    <path d="M 144.169459 377.736625 
C 148.362688 377.736625 152.384738 376.070637 155.349799 373.105576 
C 158.31486 370.140516 159.980848 366.118466 159.980848 361.925237 
C 159.980848 357.732007 158.31486 353.709957 155.349799 350.744897 
C 152.384738 347.779836 148.362688 346.113848 144.169459 346.113848 
C 139.97623 346.113848 135.95418 347.779836 132.989119 350.744897 
C 130.024059 353.709957 128.358071 357.732007 128.358071 361.925237 
C 128.358071 366.118466 130.024059 370.140516 132.989119 373.105576 
C 135.95418 376.070637 139.97623 377.736625 144.169459 377.736625 
z
" clip-path="url(#pe0e76fc33f)" style="fill: #ff7e79; stroke: #000000"/>
    <path d="M 258.3 412.979669 
C 259.626015 412.979669 260.897899 412.452838 261.835534 411.515203 
C 262.773168 410.577569 263.3 409.305685 263.3 407.979669 
C 263.3 406.653654 262.773168 405.38177 261.835534 404.444136 
C 260.897899 403.506501 259.626015 402.979669 258.3 402.979669 
C 256.973984 402.979669 255.702101 403.506501 254.764466 404.444136 
C 253.826832 405.38177 253.3 406.653654 253.3 407.979669 
C 253.3 409.305685 253.826832 410.577569 254.764466 411.515203 
C 255.702101 412.452838 256.973984 412.979669 258.3 412.979669 
z
" clip-path="url(#pe0e76fc33f)" style="fill: #ff7e79; stroke: #000000"/>
    <path d="M 372.430541 377.736625 
C 376.62377 377.736625 380.64582 376.070637 383.610881 373.105576 
C 386.575941 370.140516 388.241929 366.118466 388.241929 361.925237 
C 388.241929 357.732007 386.575941 353.709957 383.610881 350.744897 
C 380.64582 347.779836 376.62377 346.113848 372.430541 346.113848 
C 368.237312 346.113848 364.215262 347.779836 361.250201 350.744897 
C 358.28514 353.709957 356.619152 357.732007 356.619152 361.925237 
C 356.619152 366.118466 358.28514 370.140516 361.250201 373.105576 
C 364.215262 376.070637 368.237312 377.736625 372.430541 377.736625 
z
" clip-path="url(#pe0e76fc33f)" style="fill: #ff7e79; stroke: #000000"/>
    <path d="M 419.704959 255.74 
C 421.030974 255.74 422.302858 255.213168 423.240493 254.275534 
C 424.178127 253.337899 424.704959 252.066016 424.704959 250.74 
C 424.704959 249.413985 424.178127 248.142101 423.240493 247.204466 
C 422.302858 246.266832 421.030974 245.74 419.704959 245.74 
C 418.378943 245.74 417.107059 246.266832 416.169425 247.204466 
C 415.23179 248.142101 414.704959 249.413985 414.704959 250.74 
C 414.704959 252.066016 415.23179 253.337899 416.169425 254.275534 
C 417.107059 255.213168 418.378943 255.74 419.704959 255.74 
z
" clip-path="url(#pe0e76fc33f)" style="fill: #ff7e79; stroke: #000000"/>
    <path d="M 372.430541 155.366152 
C 376.62377 155.366152 380.64582 153.700164 383.610881 150.735103 
C 386.575941 147.770043 388.241929 143.747993 388.241929 139.554763 
C 388.241929 135.361534 386.575941 131.339484 383.610881 128.374424 
C 380.64582 125.409363 376.62377 123.743375 372.430541 123.743375 
C 368.237312 123.743375 364.215262 125.409363 361.250201 128.374424 
C 358.28514 131.339484 356.619152 135.361534 356.619152 139.554763 
C 356.619152 143.747993 358.28514 147.770043 361.250201 150.735103 
C 364.215262 153.700164 368.237312 155.366152 372.430541 155.366152 
z
" clip-path="url(#pe0e76fc33f)" style="fill: #ff7e79; stroke: #000000"/>
   </g>
   <g id="text_1">
    <g clip-path="url(#pe0e76fc33f)">
     <!-- 0 -->
     <g transform="translate(254.4825 96.811581)scale(0.12 -0.12)">
      <defs>
       <path id="DejaVuSans-30" d="M 2034 4250 
Q 1547 4250 1301 3770 
Q 1056 3291 1056 2328 
Q 1056 1369 1301 889 
Q 1547 409 2034 409 
Q 2525 409 2770 889 
Q 3016 1369 3016 2328 
Q 3016 3291 2770 3770 
Q 2525 4250 2034 4250 
z
M 2034 4750 
Q 2819 4750 3233 4129 
Q 3647 3509 3647 2328 
Q 3647 1150 3233 529 
Q 2819 -91 2034 -91 
Q 1250 -91 836 529 
Q 422 1150 422 2328 
Q 422 3509 836 4129 
Q 1250 4750 2034 4750 
z
" transform="scale(0.015625)"/>
      </defs>
      <use xlink:href="#DejaVuSans-30"/>
     </g>
    </g>
   </g>
   <g id="text_2">
    <g clip-path="url(#pe0e76fc33f)">
     <!-- 1 -->
     <g transform="translate(140.351959 142.866013)scale(0.12 -0.12)">
      <defs>
       <path id="DejaVuSans-31" d="M 794 531 
L 1825 531 
L 1825 4091 
L 703 3866 
L 703 4441 
L 1819 4666 
L 2450 4666 
L 2450 531 
L 3481 531 
L 3481 0 
L 794 0 
L 794 531 
z
" transform="scale(0.015625)"/>
      </defs>
      <use xlink:href="#DejaVuSans-31"/>
     </g>
    </g>
   </g>
   <g id="text_3">
    <g clip-path="url(#pe0e76fc33f)">
     <!-- 2 -->
     <g transform="translate(93.077541 254.05125)scale(0.12 -0.12)">
      <defs>
       <path id="DejaVuSans-32" d="M 1228 531 
L 3431 531 
L 3431 0 
L 469 0 
L 469 531 
Q 828 903 1448 1529 
Q 2069 2156 2228 2338 
Q 2531 2678 2651 2914 
Q 2772 3150 2772 3378 
Q 2772 3750 2511 3984 
Q 2250 4219 1831 4219 
Q 1534 4219 1204 4116 
Q 875 4013 500 3803 
L 500 4441 
Q 881 4594 1212 4672 
Q 1544 4750 1819 4750 
Q 2544 4750 2975 4387 
Q 3406 4025 3406 3419 
Q 3406 3131 3298 2873 
Q 3191 2616 2906 2266 
Q 2828 2175 2409 1742 
Q 1991 1309 1228 531 
z
" transform="scale(0.015625)"/>
      </defs>
      <use xlink:href="#DejaVuSans-32"/>
     </g>
    </g>
   </g>
   <g id="text_4">
    <g clip-path="url(#pe0e76fc33f)">
     <!-- 3 -->
     <g transform="translate(140.351959 365.236487)scale(0.12 -0.12)">
      <defs>
       <path id="DejaVuSans-33" d="M 2597 2516 
Q 3050 2419 3304 2112 
Q 3559 1806 3559 1356 
Q 3559 666 3084 287 
Q 2609 -91 1734 -91 
Q 1441 -91 1130 -33 
Q 819 25 488 141 
L 488 750 
Q 750 597 1062 519 
Q 1375 441 1716 441 
Q 2309 441 2620 675 
Q 2931 909 2931 1356 
Q 2931 1769 2642 2001 
Q 2353 2234 1838 2234 
L 1294 2234 
L 1294 2753 
L 1863 2753 
Q 2328 2753 2575 2939 
Q 2822 3125 2822 3475 
Q 2822 3834 2567 4026 
Q 2313 4219 1838 4219 
Q 1578 4219 1281 4162 
Q 984 4106 628 3988 
L 628 4550 
Q 988 4650 1302 4700 
Q 1616 4750 1894 4750 
Q 2613 4750 3031 4423 
Q 3450 4097 3450 3541 
Q 3450 3153 3228 2886 
Q 3006 2619 2597 2516 
z
" transform="scale(0.015625)"/>
      </defs>
      <use xlink:href="#DejaVuSans-33"/>
     </g>
    </g>
   </g>
   <g id="text_5">
    <g clip-path="url(#pe0e76fc33f)">
     <!-- 4 -->
     <g transform="translate(254.4825 411.290919)scale(0.12 -0.12)">
      <defs>
       <path id="DejaVuSans-34" d="M 2419 4116 
L 825 1625 
L 2419 1625 
L 2419 4116 
z
M 2253 4666 
L 3047 4666 
L 3047 1625 
L 3713 1625 
L 3713 1100 
L 3047 1100 
L 3047 0 
L 2419 0 
L 2419 1100 
L 313 1100 
L 313 1709 
L 2253 4666 
z
" transform="scale(0.015625)"/>
      </defs>
      <use xlink:href="#DejaVuSans-34"/>
     </g>
    </g>
   </g>
   <g id="text_6">
    <g clip-path="url(#pe0e76fc33f)">
     <!-- 5 -->
     <g transform="translate(368.613041 365.236487)scale(0.12 -0.12)">
      <defs>
       <path id="DejaVuSans-35" d="M 691 4666 
L 3169 4666 
L 3169 4134 
L 1269 4134 
L 1269 2991 
Q 1406 3038 1543 3061 
Q 1681 3084 1819 3084 
Q 2600 3084 3056 2656 
Q 3513 2228 3513 1497 
Q 3513 744 3044 326 
Q 2575 -91 1722 -91 
Q 1428 -91 1123 -41 
Q 819 9 494 109 
L 494 744 
Q 775 591 1075 516 
Q 1375 441 1709 441 
Q 2250 441 2565 725 
Q 2881 1009 2881 1497 
Q 2881 1984 2565 2268 
Q 2250 2553 1709 2553 
Q 1456 2553 1204 2497 
Q 953 2441 691 2322 
L 691 4666 
z
" transform="scale(0.015625)"/>
      </defs>
      <use xlink:href="#DejaVuSans-35"/>
     </g>
    </g>
   </g>
   <g id="text_7">
    <g clip-path="url(#pe0e76fc33f)">
     <!-- 6 -->
     <g transform="translate(415.887459 254.05125)scale(0.12 -0.12)">
      <defs>
       <path id="DejaVuSans-36" d="M 2113 2584 
Q 1688 2584 1439 2293 
Q 1191 2003 1191 1497 
Q 1191 994 1439 701 
Q 1688 409 2113 409 
Q 2538 409 2786 701 
Q 3034 994 3034 1497 
Q 3034 2003 2786 2293 
Q 2538 2584 2113 2584 
z
M 3366 4563 
L 3366 3988 
Q 3128 4100 2886 4159 
Q 2644 4219 2406 4219 
Q 1781 4219 1451 3797 
Q 1122 3375 1075 2522 
Q 1259 2794 1537 2939 
Q 1816 3084 2150 3084 
Q 2853 3084 3261 2657 
Q 3669 2231 3669 1497 
Q 3669 778 3244 343 
Q 2819 -91 2113 -91 
Q 1303 -91 875 529 
Q 447 1150 447 2328 
Q 447 3434 972 4092 
Q 1497 4750 2381 4750 
Q 2619 4750 2861 4703 
Q 3103 4656 3366 4563 
z
" transform="scale(0.015625)"/>
      </defs>
      <use xlink:href="#DejaVuSans-36"/>
     </g>
    </g>
   </g>
   <g id="text_8">
    <g clip-path="url(#pe0e76fc33f)">
     <!-- 7 -->
     <g transform="translate(368.613041 142.866013)scale(0.12 -0.12)">
      <defs>
       <path id="DejaVuSans-37" d="M 525 4666 
L 3525 4666 
L 3525 4397 
L 1831 0 
L 1172 0 
L 2766 4134 
L 525 4134 
L 525 4666 
z
" transform="scale(0.015625)"/>
      </defs>
      <use xlink:href="#DejaVuSans-37"/>
     </g>
    </g>
   </g>
  </g>
 </g>
 <defs>
  <clipPath id="pe0e76fc33f">
   <rect x="63" y="60.48" width="390.6" height="380.52"/>
  </clipPath>
 </defs>
</svg>
