<?xml version="1.0" encoding="utf-8" standalone="no"?>
<!DOCTYPE svg PUBLIC "-//W3C//DTD SVG 1.1//EN"
  "http://www.w3.org/Graphics/SVG/1.1/DTD/svg11.dtd">
<svg xmlns:xlink="http://www.w3.org/1999/xlink" width="504pt" height="504pt" viewBox="0 0 504 504" xmlns="http://www.w3.org/2000/svg" version="1.1">
 <metadata>
  <rdf:RDF xmlns:dc="http://purl.org/dc/elements/1.1/" xmlns:cc="http://creativecommons.org/ns#" xmlns:rdf="http://www.w3.org/1999/02/22-rdf-syntax-ns#">
   <cc:Work>
    <dc:type rdf:resource="http://purl.org/dc/dcmitype/StillImage"/>
    <dc:date>2022-03-23T19:29:36.780176</dc:date>
    <dc:format>image/svg+xml</dc:format>
    <dc:creator>
     <cc:Agent>
      <dc:title>Matplotlib v3.5.1, https://matplotlib.org/</dc:title>
     </cc:Agent>
    </dc:creator>
   </cc:Work>
  </rdf:RDF>
 </metadata>
 <defs>
  <style type="text/css">*{stroke-linejoin: round; stroke-linecap: butt}</style>
 </defs>
 <g id="figure_1">
  <g id="patch_1">
   <path d="M 0 504 
L 504 504 
L 504 0 
L 0 0 
z
" style="fill: #ffffff"/>
  </g>
  <g id="axes_1">
   <g id="patch_2">
    <path d="M 100.47848 247.249037 
Q 173.726439 175.891348 245.773146 105.703911 
" clip-path="url(#p3c73fa34fe)" style="fill: none; stroke: #000000; stroke-width: 1.5; stroke-linecap: round"/>
    <path d="M 241.512383 107.062549 
L 245.773146 105.703911 
L 244.303598 109.927705 
L 241.512383 107.062549 
z
" clip-path="url(#p3c73fa34fe)" style="stroke: #000000; stroke-width: 1.5; stroke-linecap: round"/>
   </g>
   <g id="patch_3">
    <path d="M 416.12152 254.230963 
Q 342.873561 325.588652 270.826854 395.776089 
" clip-path="url(#p3c73fa34fe)" style="fill: none; stroke: #000000; stroke-width: 1.5; stroke-linecap: round"/>
    <path d="M 275.087617 394.417451 
L 270.826854 395.776089 
L 272.296402 391.552295 
L 275.087617 394.417451 
z
" clip-path="url(#p3c73fa34fe)" style="stroke: #000000; stroke-width: 1.5; stroke-linecap: round"/>
   </g>
   <g id="PathCollection_1">
    <path d="M 258.3 109.311719 
C 262.493229 109.311719 266.515279 107.645731 269.48034 104.68067 
C 272.445401 101.71561 274.111388 97.69356 274.111388 93.500331 
C 274.111388 89.307101 272.445401 85.285051 269.48034 82.319991 
C 266.515279 79.35493 262.493229 77.688942 258.3 77.688942 
C 254.106771 77.688942 250.084721 79.35493 247.11966 82.319991 
C 244.154599 85.285051 242.488612 89.307101 242.488612 93.500331 
C 242.488612 97.69356 244.154599 101.71561 247.11966 104.68067 
C 250.084721 107.645731 254.106771 109.311719 258.3 109.311719 
z
" clip-path="url(#p3c73fa34fe)" style="fill: #ff7e79; stroke: #000000"/>
    <path d="M 144.169459 144.554763 
C 145.495475 144.554763 146.767359 144.027932 147.704993 143.090297 
C 148.642628 142.152663 149.169459 140.880779 149.169459 139.554763 
C 149.169459 138.228748 148.642628 136.956864 147.704993 136.01923 
C 146.767359 135.081595 145.495475 134.554763 144.169459 134.554763 
C 142.843444 134.554763 141.57156 135.081595 140.633925 136.01923 
C 139.696291 136.956864 139.169459 138.228748 139.169459 139.554763 
C 139.169459 140.880779 139.696291 142.152663 140.633925 143.090297 
C 141.57156 144.027932 142.843444 144.554763 144.169459 144.554763 
z
" clip-path="url(#p3c73fa34fe)" style="fill: #ff7e79; stroke: #000000"/>
    <path d="M 96.895041 255.74 
C 98.221057 255.74 99.492941 255.213168 100.430575 254.275534 
C 101.36821 253.337899 101.895041 252.066015 101.895041 250.74 
C 101.895041 249.413984 101.36821 248.142101 100.430575 247.204466 
C 99.492941 246.266832 98.221057 245.74 96.895041 245.74 
C 95.569026 245.74 94.297142 246.266832 93.359507 247.204466 
C 92.421873 248.142101 91.895041 249.413984 91.895041 250.74 
C 91.895041 252.066015 92.421873 253.337899 93.359507 254.275534 
C 94.297142 255.213168 95.569026 255.74 96.895041 255.74 
z
" clip-path="url(#p3c73fa34fe)" style="fill: #ff7e79; stroke: #000000"/>
    <path d="M 144.169459 366.925237 
C 145.495475 366.925237 146.767359 366.398405 147.704993 365.46077 
C 148.642628 364.523136 149.169459 363.251252 149.169459 361.925237 
C 149.169459 360.599221 148.642628 359.327337 147.704993 358.389703 
C 146.767359 357.452068 145.495475 356.925237 144.169459 356.925237 
C 142.843444 356.925237 141.57156 357.452068 140.633925 358.389703 
C 139.696291 359.327337 139.169459 360.599221 139.169459 361.925237 
C 139.169459 363.251252 139.696291 364.523136 140.633925 365.46077 
C 141.57156 366.398405 142.843444 366.925237 144.169459 366.925237 
z
" clip-path="url(#p3c73fa34fe)" style="fill: #ff7e79; stroke: #000000"/>
    <path d="M 258.3 423.791058 
C 262.493229 423.791058 266.515279 422.12507 269.48034 419.160009 
C 272.445401 416.194949 274.111388 412.172899 274.111388 407.979669 
C 274.111388 403.78644 272.445401 399.76439 269.48034 396.79933 
C 266.515279 393.834269 262.493229 392.168281 258.3 392.168281 
C 254.106771 392.168281 250.084721 393.834269 247.11966 396.79933 
C 244.154599 399.76439 242.488612 403.78644 242.488612 407.979669 
C 242.488612 412.172899 244.154599 416.194949 247.11966 419.160009 
C 250.084721 422.12507 254.106771 423.791058 258.3 423.791058 
z
" clip-path="url(#p3c73fa34fe)" style="fill: #ff7e79; stroke: #000000"/>
    <path d="M 372.430541 366.925237 
C 373.756556 366.925237 375.02844 366.398405 375.966075 365.46077 
C 376.903709 364.523136 377.430541 363.251252 377.430541 361.925237 
C 377.430541 360.599221 376.903709 359.327337 375.966075 358.389703 
C 375.02844 357.452068 373.756556 356.925237 372.430541 356.925237 
C 371.104525 356.925237 369.832641 357.452068 368.895007 358.389703 
C 367.957372 359.327337 367.430541 360.599221 367.430541 361.925237 
C 367.430541 363.251252 367.957372 364.523136 368.895007 365.46077 
C 369.832641 366.398405 371.104525 366.925237 372.430541 366.925237 
z
" clip-path="url(#p3c73fa34fe)" style="fill: #ff7e79; stroke: #000000"/>
    <path d="M 419.704959 255.74 
C 421.030974 255.74 422.302858 255.213168 423.240493 254.275534 
C 424.178127 253.337899 424.704959 252.066016 424.704959 250.74 
C 424.704959 249.413985 424.178127 248.142101 423.240493 247.204466 
C 422.302858 246.266832 421.030974 245.74 419.704959 245.74 
C 418.378943 245.74 417.107059 246.266832 416.169425 247.204466 
C 415.23179 248.142101 414.704959 249.413985 414.704959 250.74 
C 414.704959 252.066016 415.23179 253.337899 416.169425 254.275534 
C 417.107059 255.213168 418.378943 255.74 419.704959 255.74 
z
" clip-path="url(#p3c73fa34fe)" style="fill: #ff7e79; stroke: #000000"/>
    <path d="M 372.430541 144.554763 
C 373.756556 144.554763 375.02844 144.027932 375.966075 143.090297 
C 376.903709 142.152663 377.430541 140.880779 377.430541 139.554763 
C 377.430541 138.228748 376.903709 136.956864 375.966075 136.01923 
C 375.02844 135.081595 373.756556 134.554763 372.430541 134.554763 
C 371.104525 134.554763 369.832641 135.081595 368.895007 136.01923 
C 367.957372 136.956864 367.430541 138.228748 367.430541 139.554763 
C 367.430541 140.880779 367.957372 142.152663 368.895007 143.090297 
C 369.832641 144.027932 371.104525 144.554763 372.430541 144.554763 
z
" clip-path="url(#p3c73fa34fe)" style="fill: #ff7e79; stroke: #000000"/>
   </g>
   <g id="text_1">
    <g clip-path="url(#p3c73fa34fe)">
     <!-- 0 -->
     <g transform="translate(254.4825 96.811581)scale(0.12 -0.12)">
      <defs>
       <path id="DejaVuSans-30" d="M 2034 4250 
Q 1547 4250 1301 3770 
Q 1056 3291 1056 2328 
Q 1056 1369 1301 889 
Q 1547 409 2034 409 
Q 2525 409 2770 889 
Q 3016 1369 3016 2328 
Q 3016 3291 2770 3770 
Q 2525 4250 2034 4250 
z
M 2034 4750 
Q 2819 4750 3233 4129 
Q 3647 3509 3647 2328 
Q 3647 1150 3233 529 
Q 2819 -91 2034 -91 
Q 1250 -91 836 529 
Q 422 1150 422 2328 
Q 422 3509 836 4129 
Q 1250 4750 2034 4750 
z
" transform="scale(0.015625)"/>
      </defs>
      <use xlink:href="#DejaVuSans-30"/>
     </g>
    </g>
   </g>
   <g id="text_2">
    <g clip-path="url(#p3c73fa34fe)">
     <!-- 1 -->
     <g transform="translate(140.351959 142.866013)scale(0.12 -0.12)">
      <defs>
       <path id="DejaVuSans-31" d="M 794 531 
L 1825 531 
L 1825 4091 
L 703 3866 
L 703 4441 
L 1819 4666 
L 2450 4666 
L 2450 531 
L 3481 531 
L 3481 0 
L 794 0 
L 794 531 
z
" transform="scale(0.015625)"/>
      </defs>
      <use xlink:href="#DejaVuSans-31"/>
     </g>
    </g>
   </g>
   <g id="text_3">
    <g clip-path="url(#p3c73fa34fe)">
     <!-- 2 -->
     <g transform="translate(93.077541 254.05125)scale(0.12 -0.12)">
      <defs>
       <path id="DejaVuSans-32" d="M 1228 531 
L 3431 531 
L 3431 0 
L 469 0 
L 469 531 
Q 828 903 1448 1529 
Q 2069 2156 2228 2338 
Q 2531 2678 2651 2914 
Q 2772 3150 2772 3378 
Q 2772 3750 2511 3984 
Q 2250 4219 1831 4219 
Q 1534 4219 1204 4116 
Q 875 4013 500 3803 
L 500 4441 
Q 881 4594 1212 4672 
Q 1544 4750 1819 4750 
Q 2544 4750 2975 4387 
Q 3406 4025 3406 3419 
Q 3406 3131 3298 2873 
Q 3191 2616 2906 2266 
Q 2828 2175 2409 1742 
Q 1991 1309 1228 531 
z
" transform="scale(0.015625)"/>
      </defs>
      <use xlink:href="#DejaVuSans-32"/>
     </g>
    </g>
   </g>
   <g id="text_4">
    <g clip-path="url(#p3c73fa34fe)">
     <!-- 3 -->
     <g transform="translate(140.351959 365.236487)scale(0.12 -0.12)">
      <defs>
       <path id="DejaVuSans-33" d="M 2597 2516 
Q 3050 2419 3304 2112 
Q 3559 1806 3559 1356 
Q 3559 666 3084 287 
Q 2609 -91 1734 -91 
Q 1441 -91 1130 -33 
Q 819 25 488 141 
L 488 750 
Q 750 597 1062 519 
Q 1375 441 1716 441 
Q 2309 441 2620 675 
Q 2931 909 2931 1356 
Q 2931 1769 2642 2001 
Q 2353 2234 1838 2234 
L 1294 2234 
L 1294 2753 
L 1863 2753 
Q 2328 2753 2575 2939 
Q 2822 3125 2822 3475 
Q 2822 3834 2567 4026 
Q 2313 4219 1838 4219 
Q 1578 4219 1281 4162 
Q 984 4106 628 3988 
L 628 4550 
Q 988 4650 1302 4700 
Q 1616 4750 1894 4750 
Q 2613 4750 3031 4423 
Q 3450 4097 3450 3541 
Q 3450 3153 3228 2886 
Q 3006 2619 2597 2516 
z
" transform="scale(0.015625)"/>
      </defs>
      <use xlink:href="#DejaVuSans-33"/>
     </g>
    </g>
   </g>
   <g id="text_5">
    <g clip-path="url(#p3c73fa34fe)">
     <!-- 4 -->
     <g transform="translate(254.4825 411.290919)scale(0.12 -0.12)">
      <defs>
       <path id="DejaVuSans-34" d="M 2419 4116 
L 825 1625 
L 2419 1625 
L 2419 4116 
z
M 2253 4666 
L 3047 4666 
L 3047 1625 
L 3713 1625 
L 3713 1100 
L 3047 1100 
L 3047 0 
L 2419 0 
L 2419 1100 
L 313 1100 
L 313 1709 
L 2253 4666 
z
" transform="scale(0.015625)"/>
      </defs>
      <use xlink:href="#DejaVuSans-34"/>
     </g>
    </g>
   </g>
   <g id="text_6">
    <g clip-path="url(#p3c73fa34fe)">
     <!-- 5 -->
     <g transform="translate(368.613041 365.236487)scale(0.12 -0.12)">
      <defs>
       <path id="DejaVuSans-35" d="M 691 4666 
L 3169 4666 
L 3169 4134 
L 1269 4134 
L 1269 2991 
Q 1406 3038 1543 3061 
Q 1681 3084 1819 3084 
Q 2600 3084 3056 2656 
Q 3513 2228 3513 1497 
Q 3513 744 3044 326 
Q 2575 -91 1722 -91 
Q 1428 -91 1123 -41 
Q 819 9 494 109 
L 494 744 
Q 775 591 1075 516 
Q 1375 441 1709 441 
Q 2250 441 2565 725 
Q 2881 1009 2881 1497 
Q 2881 1984 2565 2268 
Q 2250 2553 1709 2553 
Q 1456 2553 1204 2497 
Q 953 2441 691 2322 
L 691 4666 
z
" transform="scale(0.015625)"/>
      </defs>
      <use xlink:href="#DejaVuSans-35"/>
     </g>
    </g>
   </g>
   <g id="text_7">
    <g clip-path="url(#p3c73fa34fe)">
     <!-- 6 -->
     <g transform="translate(415.887459 254.05125)scale(0.12 -0.12)">
      <defs>
       <path id="DejaVuSans-36" d="M 2113 2584 
Q 1688 2584 1439 2293 
Q 1191 2003 1191 1497 
Q 1191 994 1439 701 
Q 1688 409 2113 409 
Q 2538 409 2786 701 
Q 3034 994 3034 1497 
Q 3034 2003 2786 2293 
Q 2538 2584 2113 2584 
z
M 3366 4563 
L 3366 3988 
Q 3128 4100 2886 4159 
Q 2644 4219 2406 4219 
Q 1781 4219 1451 3797 
Q 1122 3375 1075 2522 
Q 1259 2794 1537 2939 
Q 1816 3084 2150 3084 
Q 2853 3084 3261 2657 
Q 3669 2231 3669 1497 
Q 3669 778 3244 343 
Q 2819 -91 2113 -91 
Q 1303 -91 875 529 
Q 447 1150 447 2328 
Q 447 3434 972 4092 
Q 1497 4750 2381 4750 
Q 2619 4750 2861 4703 
Q 3103 4656 3366 4563 
z
" transform="scale(0.015625)"/>
      </defs>
      <use xlink:href="#DejaVuSans-36"/>
     </g>
    </g>
   </g>
   <g id="text_8">
    <g clip-path="url(#p3c73fa34fe)">
     <!-- 7 -->
     <g transform="translate(368.613041 142.866013)scale(0.12 -0.12)">
      <defs>
       <path id="DejaVuSans-37" d="M 525 4666 
L 3525 4666 
L 3525 4397 
L 1831 0 
L 1172 0 
L 2766 4134 
L 525 4134 
L 525 4666 
z
" transform="scale(0.015625)"/>
      </defs>
      <use xlink:href="#DejaVuSans-37"/>
     </g>
    </g>
   </g>
  </g>
 </g>
 <defs>
  <clipPath id="p3c73fa34fe">
   <rect x="63" y="60.48" width="390.6" height="380.52"/>
  </clipPath>
 </defs>
</svg>
