<?xml version="1.0" encoding="utf-8" standalone="no"?>
<!DOCTYPE svg PUBLIC "-//W3C//DTD SVG 1.1//EN"
  "http://www.w3.org/Graphics/SVG/1.1/DTD/svg11.dtd">
<svg xmlns:xlink="http://www.w3.org/1999/xlink" width="504pt" height="504pt" viewBox="0 0 504 504" xmlns="http://www.w3.org/2000/svg" version="1.1">
 <metadata>
  <rdf:RDF xmlns:dc="http://purl.org/dc/elements/1.1/" xmlns:cc="http://creativecommons.org/ns#" xmlns:rdf="http://www.w3.org/1999/02/22-rdf-syntax-ns#">
   <cc:Work>
    <dc:type rdf:resource="http://purl.org/dc/dcmitype/StillImage"/>
    <dc:date>2022-03-23T19:29:37.121019</dc:date>
    <dc:format>image/svg+xml</dc:format>
    <dc:creator>
     <cc:Agent>
      <dc:title>Matplotlib v3.5.1, https://matplotlib.org/</dc:title>
     </cc:Agent>
    </dc:creator>
   </cc:Work>
  </rdf:RDF>
 </metadata>
 <defs>
  <style type="text/css">*{stroke-linejoin: round; stroke-linecap: butt}</style>
 </defs>
 <g id="figure_1">
  <g id="patch_1">
   <path d="M 0 504 
L 504 504 
L 504 0 
L 0 0 
z
" style="fill: #ffffff"/>
  </g>
  <g id="axes_1">
   <g id="patch_2">
    <path d="M 258.3 98.495646 
Q 258.3 245.33008 258.3 390.487463 
" clip-path="url(#p74e05c0322)" style="fill: none; stroke: #000000; stroke-width: 1.5; stroke-linecap: round"/>
    <path d="M 260.3 386.487463 
L 258.3 390.487463 
L 256.3 386.487463 
L 260.3 386.487463 
z
" clip-path="url(#p74e05c0322)" style="stroke: #000000; stroke-width: 1.5; stroke-linecap: round"/>
   </g>
   <g id="PathCollection_1">
    <path d="M 258.3 98.500331 
C 259.626015 98.500331 260.897899 97.973499 261.835534 97.035864 
C 262.773168 96.09823 263.3 94.826346 263.3 93.500331 
C 263.3 92.174315 262.773168 90.902431 261.835534 89.964797 
C 260.897899 89.027162 259.626015 88.500331 258.3 88.500331 
C 256.973985 88.500331 255.702101 89.027162 254.764466 89.964797 
C 253.826832 90.902431 253.3 92.174315 253.3 93.500331 
C 253.3 94.826346 253.826832 96.09823 254.764466 97.035864 
C 255.702101 97.973499 256.973985 98.500331 258.3 98.500331 
z
" clip-path="url(#p74e05c0322)" style="fill: #ff7e79; stroke: #000000"/>
    <path d="M 132.756405 144.554763 
C 134.082421 144.554763 135.354304 144.027932 136.291939 143.090297 
C 137.229574 142.152663 137.756405 140.880779 137.756405 139.554763 
C 137.756405 138.228748 137.229574 136.956864 136.291939 136.01923 
C 135.354304 135.081595 134.082421 134.554763 132.756405 134.554763 
C 131.43039 134.554763 130.158506 135.081595 129.220871 136.01923 
C 128.283237 136.956864 127.756405 138.228748 127.756405 139.554763 
C 127.756405 140.880779 128.283237 142.152663 129.220871 143.090297 
C 130.158506 144.027932 131.43039 144.554763 132.756405 144.554763 
z
" clip-path="url(#p74e05c0322)" style="fill: #ff7e79; stroke: #000000"/>
    <path d="M 80.754545 255.74 
C 82.080561 255.74 83.352445 255.213168 84.290079 254.275534 
C 85.227714 253.337899 85.754545 252.066015 85.754545 250.74 
C 85.754545 249.413984 85.227714 248.142101 84.290079 247.204466 
C 83.352445 246.266832 82.080561 245.74 80.754545 245.74 
C 79.42853 245.74 78.156646 246.266832 77.219012 247.204466 
C 76.281377 248.142101 75.754545 249.413984 75.754545 250.74 
C 75.754545 252.066015 76.281377 253.337899 77.219012 254.275534 
C 78.156646 255.213168 79.42853 255.74 80.754545 255.74 
z
" clip-path="url(#p74e05c0322)" style="fill: #ff7e79; stroke: #000000"/>
    <path d="M 132.756405 366.925237 
C 134.082421 366.925237 135.354304 366.398405 136.291939 365.46077 
C 137.229574 364.523136 137.756405 363.251252 137.756405 361.925237 
C 137.756405 360.599221 137.229574 359.327337 136.291939 358.389703 
C 135.354304 357.452068 134.082421 356.925237 132.756405 356.925237 
C 131.43039 356.925237 130.158506 357.452068 129.220871 358.389703 
C 128.283237 359.327337 127.756405 360.599221 127.756405 361.925237 
C 127.756405 363.251252 128.283237 364.523136 129.220871 365.46077 
C 130.158506 366.398405 131.43039 366.925237 132.756405 366.925237 
z
" clip-path="url(#p74e05c0322)" style="fill: #ff7e79; stroke: #000000"/>
    <path d="M 258.3 423.791058 
C 262.493229 423.791058 266.515279 422.12507 269.48034 419.160009 
C 272.445401 416.194949 274.111388 412.172899 274.111388 407.979669 
C 274.111388 403.78644 272.445401 399.76439 269.48034 396.79933 
C 266.515279 393.834269 262.493229 392.168281 258.3 392.168281 
C 254.106771 392.168281 250.084721 393.834269 247.11966 396.79933 
C 244.154599 399.76439 242.488612 403.78644 242.488612 407.979669 
C 242.488612 412.172899 244.154599 416.194949 247.11966 419.160009 
C 250.084721 422.12507 254.106771 423.791058 258.3 423.791058 
z
" clip-path="url(#p74e05c0322)" style="fill: #ff7e79; stroke: #000000"/>
    <path d="M 383.843595 366.925237 
C 385.16961 366.925237 386.441494 366.398405 387.379129 365.46077 
C 388.316763 364.523136 388.843595 363.251252 388.843595 361.925237 
C 388.843595 360.599221 388.316763 359.327337 387.379129 358.389703 
C 386.441494 357.452068 385.16961 356.925237 383.843595 356.925237 
C 382.517579 356.925237 381.245696 357.452068 380.308061 358.389703 
C 379.370426 359.327337 378.843595 360.599221 378.843595 361.925237 
C 378.843595 363.251252 379.370426 364.523136 380.308061 365.46077 
C 381.245696 366.398405 382.517579 366.925237 383.843595 366.925237 
z
" clip-path="url(#p74e05c0322)" style="fill: #ff7e79; stroke: #000000"/>
    <path d="M 435.845455 255.74 
C 437.17147 255.74 438.443354 255.213168 439.380988 254.275534 
C 440.318623 253.337899 440.845455 252.066016 440.845455 250.74 
C 440.845455 249.413985 440.318623 248.142101 439.380988 247.204466 
C 438.443354 246.266832 437.17147 245.74 435.845455 245.74 
C 434.519439 245.74 433.247555 246.266832 432.309921 247.204466 
C 431.372286 248.142101 430.845455 249.413985 430.845455 250.74 
C 430.845455 252.066016 431.372286 253.337899 432.309921 254.275534 
C 433.247555 255.213168 434.519439 255.74 435.845455 255.74 
z
" clip-path="url(#p74e05c0322)" style="fill: #ff7e79; stroke: #000000"/>
    <path d="M 383.843595 144.554763 
C 385.16961 144.554763 386.441494 144.027932 387.379129 143.090297 
C 388.316763 142.152663 388.843595 140.880779 388.843595 139.554763 
C 388.843595 138.228748 388.316763 136.956864 387.379129 136.01923 
C 386.441494 135.081595 385.16961 134.554763 383.843595 134.554763 
C 382.517579 134.554763 381.245696 135.081595 380.308061 136.01923 
C 379.370426 136.956864 378.843595 138.228748 378.843595 139.554763 
C 378.843595 140.880779 379.370426 142.152663 380.308061 143.090297 
C 381.245696 144.027932 382.517579 144.554763 383.843595 144.554763 
z
" clip-path="url(#p74e05c0322)" style="fill: #ff7e79; stroke: #000000"/>
   </g>
   <g id="text_1">
    <g clip-path="url(#p74e05c0322)">
     <!-- 0 -->
     <g transform="translate(254.4825 96.811581)scale(0.12 -0.12)">
      <defs>
       <path id="DejaVuSans-30" d="M 2034 4250 
Q 1547 4250 1301 3770 
Q 1056 3291 1056 2328 
Q 1056 1369 1301 889 
Q 1547 409 2034 409 
Q 2525 409 2770 889 
Q 3016 1369 3016 2328 
Q 3016 3291 2770 3770 
Q 2525 4250 2034 4250 
z
M 2034 4750 
Q 2819 4750 3233 4129 
Q 3647 3509 3647 2328 
Q 3647 1150 3233 529 
Q 2819 -91 2034 -91 
Q 1250 -91 836 529 
Q 422 1150 422 2328 
Q 422 3509 836 4129 
Q 1250 4750 2034 4750 
z
" transform="scale(0.015625)"/>
      </defs>
      <use xlink:href="#DejaVuSans-30"/>
     </g>
    </g>
   </g>
   <g id="text_2">
    <g clip-path="url(#p74e05c0322)">
     <!-- 1 -->
     <g transform="translate(128.938905 142.866013)scale(0.12 -0.12)">
      <defs>
       <path id="DejaVuSans-31" d="M 794 531 
L 1825 531 
L 1825 4091 
L 703 3866 
L 703 4441 
L 1819 4666 
L 2450 4666 
L 2450 531 
L 3481 531 
L 3481 0 
L 794 0 
L 794 531 
z
" transform="scale(0.015625)"/>
      </defs>
      <use xlink:href="#DejaVuSans-31"/>
     </g>
    </g>
   </g>
   <g id="text_3">
    <g clip-path="url(#p74e05c0322)">
     <!-- 2 -->
     <g transform="translate(76.937045 254.05125)scale(0.12 -0.12)">
      <defs>
       <path id="DejaVuSans-32" d="M 1228 531 
L 3431 531 
L 3431 0 
L 469 0 
L 469 531 
Q 828 903 1448 1529 
Q 2069 2156 2228 2338 
Q 2531 2678 2651 2914 
Q 2772 3150 2772 3378 
Q 2772 3750 2511 3984 
Q 2250 4219 1831 4219 
Q 1534 4219 1204 4116 
Q 875 4013 500 3803 
L 500 4441 
Q 881 4594 1212 4672 
Q 1544 4750 1819 4750 
Q 2544 4750 2975 4387 
Q 3406 4025 3406 3419 
Q 3406 3131 3298 2873 
Q 3191 2616 2906 2266 
Q 2828 2175 2409 1742 
Q 1991 1309 1228 531 
z
" transform="scale(0.015625)"/>
      </defs>
      <use xlink:href="#DejaVuSans-32"/>
     </g>
    </g>
   </g>
   <g id="text_4">
    <g clip-path="url(#p74e05c0322)">
     <!-- 3 -->
     <g transform="translate(128.938905 365.236487)scale(0.12 -0.12)">
      <defs>
       <path id="DejaVuSans-33" d="M 2597 2516 
Q 3050 2419 3304 2112 
Q 3559 1806 3559 1356 
Q 3559 666 3084 287 
Q 2609 -91 1734 -91 
Q 1441 -91 1130 -33 
Q 819 25 488 141 
L 488 750 
Q 750 597 1062 519 
Q 1375 441 1716 441 
Q 2309 441 2620 675 
Q 2931 909 2931 1356 
Q 2931 1769 2642 2001 
Q 2353 2234 1838 2234 
L 1294 2234 
L 1294 2753 
L 1863 2753 
Q 2328 2753 2575 2939 
Q 2822 3125 2822 3475 
Q 2822 3834 2567 4026 
Q 2313 4219 1838 4219 
Q 1578 4219 1281 4162 
Q 984 4106 628 3988 
L 628 4550 
Q 988 4650 1302 4700 
Q 1616 4750 1894 4750 
Q 2613 4750 3031 4423 
Q 3450 4097 3450 3541 
Q 3450 3153 3228 2886 
Q 3006 2619 2597 2516 
z
" transform="scale(0.015625)"/>
      </defs>
      <use xlink:href="#DejaVuSans-33"/>
     </g>
    </g>
   </g>
   <g id="text_5">
    <g clip-path="url(#p74e05c0322)">
     <!-- 4 -->
     <g transform="translate(254.4825 411.290919)scale(0.12 -0.12)">
      <defs>
       <path id="DejaVuSans-34" d="M 2419 4116 
L 825 1625 
L 2419 1625 
L 2419 4116 
z
M 2253 4666 
L 3047 4666 
L 3047 1625 
L 3713 1625 
L 3713 1100 
L 3047 1100 
L 3047 0 
L 2419 0 
L 2419 1100 
L 313 1100 
L 313 1709 
L 2253 4666 
z
" transform="scale(0.015625)"/>
      </defs>
      <use xlink:href="#DejaVuSans-34"/>
     </g>
    </g>
   </g>
   <g id="text_6">
    <g clip-path="url(#p74e05c0322)">
     <!-- 5 -->
     <g transform="translate(380.026095 365.236487)scale(0.12 -0.12)">
      <defs>
       <path id="DejaVuSans-35" d="M 691 4666 
L 3169 4666 
L 3169 4134 
L 1269 4134 
L 1269 2991 
Q 1406 3038 1543 3061 
Q 1681 3084 1819 3084 
Q 2600 3084 3056 2656 
Q 3513 2228 3513 1497 
Q 3513 744 3044 326 
Q 2575 -91 1722 -91 
Q 1428 -91 1123 -41 
Q 819 9 494 109 
L 494 744 
Q 775 591 1075 516 
Q 1375 441 1709 441 
Q 2250 441 2565 725 
Q 2881 1009 2881 1497 
Q 2881 1984 2565 2268 
Q 2250 2553 1709 2553 
Q 1456 2553 1204 2497 
Q 953 2441 691 2322 
L 691 4666 
z
" transform="scale(0.015625)"/>
      </defs>
      <use xlink:href="#DejaVuSans-35"/>
     </g>
    </g>
   </g>
   <g id="text_7">
    <g clip-path="url(#p74e05c0322)">
     <!-- 6 -->
     <g transform="translate(432.027955 254.05125)scale(0.12 -0.12)">
      <defs>
       <path id="DejaVuSans-36" d="M 2113 2584 
Q 1688 2584 1439 2293 
Q 1191 2003 1191 1497 
Q 1191 994 1439 701 
Q 1688 409 2113 409 
Q 2538 409 2786 701 
Q 3034 994 3034 1497 
Q 3034 2003 2786 2293 
Q 2538 2584 2113 2584 
z
M 3366 4563 
L 3366 3988 
Q 3128 4100 2886 4159 
Q 2644 4219 2406 4219 
Q 1781 4219 1451 3797 
Q 1122 3375 1075 2522 
Q 1259 2794 1537 2939 
Q 1816 3084 2150 3084 
Q 2853 3084 3261 2657 
Q 3669 2231 3669 1497 
Q 3669 778 3244 343 
Q 2819 -91 2113 -91 
Q 1303 -91 875 529 
Q 447 1150 447 2328 
Q 447 3434 972 4092 
Q 1497 4750 2381 4750 
Q 2619 4750 2861 4703 
Q 3103 4656 3366 4563 
z
" transform="scale(0.015625)"/>
      </defs>
      <use xlink:href="#DejaVuSans-36"/>
     </g>
    </g>
   </g>
   <g id="text_8">
    <g clip-path="url(#p74e05c0322)">
     <!-- 7 -->
     <g transform="translate(380.026095 142.866013)scale(0.12 -0.12)">
      <defs>
       <path id="DejaVuSans-37" d="M 525 4666 
L 3525 4666 
L 3525 4397 
L 1831 0 
L 1172 0 
L 2766 4134 
L 525 4134 
L 525 4666 
z
" transform="scale(0.015625)"/>
      </defs>
      <use xlink:href="#DejaVuSans-37"/>
     </g>
    </g>
   </g>
  </g>
 </g>
 <defs>
  <clipPath id="p74e05c0322">
   <rect x="63" y="60.48" width="390.6" height="380.52"/>
  </clipPath>
 </defs>
</svg>
