<?xml version="1.0" encoding="utf-8" standalone="no"?>
<!DOCTYPE svg PUBLIC "-//W3C//DTD SVG 1.1//EN"
  "http://www.w3.org/Graphics/SVG/1.1/DTD/svg11.dtd">
<svg xmlns:xlink="http://www.w3.org/1999/xlink" width="504pt" height="504pt" viewBox="0 0 504 504" xmlns="http://www.w3.org/2000/svg" version="1.1">
 <metadata>
  <rdf:RDF xmlns:dc="http://purl.org/dc/elements/1.1/" xmlns:cc="http://creativecommons.org/ns#" xmlns:rdf="http://www.w3.org/1999/02/22-rdf-syntax-ns#">
   <cc:Work>
    <dc:type rdf:resource="http://purl.org/dc/dcmitype/StillImage"/>
    <dc:date>2022-04-06T17:43:07.920408</dc:date>
    <dc:format>image/svg+xml</dc:format>
    <dc:creator>
     <cc:Agent>
      <dc:title>Matplotlib v3.5.1, https://matplotlib.org/</dc:title>
     </cc:Agent>
    </dc:creator>
   </cc:Work>
  </rdf:RDF>
 </metadata>
 <defs>
  <style type="text/css">*{stroke-linejoin: round; stroke-linecap: butt}</style>
 </defs>
 <g id="figure_1">
  <g id="patch_1">
   <path d="M 0 504 
L 504 504 
L 504 0 
L 0 0 
L 0 504 
z
" style="fill: none"/>
  </g>
  <g id="axes_1">
   <g id="patch_2">
    <path d="M 247.92945 97.767061 
Q 201.388862 116.228911 156.407152 134.072381 
" clip-path="url(#pd0c3b24b0b)" style="fill: none; stroke: #000000; stroke-width: 1.5; stroke-linecap: round"/>
    <path d="M 160.862759 134.45653 
L 156.407152 134.072381 
L 159.387835 130.738385 
L 160.862759 134.45653 
z
" clip-path="url(#pd0c3b24b0b)" style="stroke: #000000; stroke-width: 1.5; stroke-linecap: round"/>
   </g>
   <g id="patch_3">
    <path d="M 133.87061 155.037237 
Q 114.781607 199.171712 96.358357 241.766943 
" clip-path="url(#pd0c3b24b0b)" style="fill: none; stroke: #000000; stroke-width: 1.5; stroke-linecap: round"/>
    <path d="M 99.781925 238.889587 
L 96.358357 241.766943 
L 96.110613 237.301674 
L 99.781925 238.889587 
z
" clip-path="url(#pd0c3b24b0b)" style="stroke: #000000; stroke-width: 1.5; stroke-linecap: round"/>
   </g>
   <g id="patch_4">
    <path d="M 95.693511 272.335002 
Q 114.782513 316.469477 133.205764 359.064708 
" clip-path="url(#pd0c3b24b0b)" style="fill: none; stroke: #000000; stroke-width: 1.5; stroke-linecap: round"/>
    <path d="M 133.453507 354.599439 
L 133.205764 359.064708 
L 129.782195 356.187352 
L 133.453507 354.599439 
z
" clip-path="url(#pd0c3b24b0b)" style="stroke: #000000; stroke-width: 1.5; stroke-linecap: round"/>
   </g>
   <g id="patch_5">
    <path d="M 146.426524 360.603031 
Q 201.390897 233.523383 255.689517 107.982979 
" clip-path="url(#pd0c3b24b0b)" style="fill: none; stroke: #000000; stroke-width: 1.5; stroke-linecap: round"/>
    <path d="M 252.265948 110.860335 
L 255.689517 107.982979 
L 255.937261 112.448248 
L 252.265948 110.860335 
z
" clip-path="url(#pd0c3b24b0b)" style="stroke: #000000; stroke-width: 1.5; stroke-linecap: round"/>
   </g>
   <g id="PathCollection_1">
    <path d="M 262.630377 107.746845 
C 266.823606 107.746845 270.845656 106.080857 273.810717 103.115796 
C 276.775778 100.150735 278.441765 96.128686 278.441765 91.935456 
C 278.441765 87.742227 276.775778 83.720177 273.810717 80.755116 
C 270.845656 77.790056 266.823606 76.124068 262.630377 76.124068 
C 258.437148 76.124068 254.415098 77.790056 251.450037 80.755116 
C 248.484976 83.720177 246.818989 87.742227 246.818989 91.935456 
C 246.818989 96.128686 248.484976 100.150735 251.450037 103.115796 
C 254.415098 106.080857 258.437148 107.746845 262.630377 107.746845 
z
" clip-path="url(#pd0c3b24b0b)" style="fill: #0096ff; stroke: #000000"/>
    <path d="M 140.148821 156.33317 
C 144.34205 156.33317 148.3641 154.667182 151.329161 151.702121 
C 154.294222 148.737061 155.960209 144.715011 155.960209 140.521781 
C 155.960209 136.328552 154.294222 132.306502 151.329161 129.341442 
C 148.3641 126.376381 144.34205 124.710393 140.148821 124.710393 
C 135.955592 124.710393 131.933542 126.376381 128.968481 129.341442 
C 126.00342 132.306502 124.337433 136.328552 124.337433 140.521781 
C 124.337433 144.715011 126.00342 148.737061 128.968481 151.702121 
C 131.933542 154.667182 135.955592 156.33317 140.148821 156.33317 
z
" clip-path="url(#pd0c3b24b0b)" style="fill: #0096ff; stroke: #000000"/>
    <path d="M 89.415299 273.630935 
C 93.608529 273.630935 97.630578 271.964947 100.595639 268.999886 
C 103.5607 266.034825 105.226688 262.012776 105.226688 257.819546 
C 105.226688 253.626317 103.5607 249.604267 100.595639 246.639206 
C 97.630578 243.674146 93.608529 242.008158 89.415299 242.008158 
C 85.22207 242.008158 81.20002 243.674146 78.234959 246.639206 
C 75.269899 249.604267 73.603911 253.626317 73.603911 257.819546 
C 73.603911 262.012776 75.269899 266.034825 78.234959 268.999886 
C 81.20002 271.964947 85.22207 273.630935 89.415299 273.630935 
z
" clip-path="url(#pd0c3b24b0b)" style="fill: #0096ff; stroke: #000000"/>
    <path d="M 140.148821 390.9287 
C 144.34205 390.9287 148.3641 389.262712 151.329161 386.297651 
C 154.294222 383.33259 155.960209 379.31054 155.960209 375.117311 
C 155.960209 370.924082 154.294222 366.902032 151.329161 363.936971 
C 148.3641 360.971911 144.34205 359.305923 140.148821 359.305923 
C 135.955592 359.305923 131.933542 360.971911 128.968481 363.936971 
C 126.00342 366.902032 124.337433 370.924082 124.337433 375.117311 
C 124.337433 379.31054 126.00342 383.33259 128.968481 386.297651 
C 131.933542 389.262712 135.955592 390.9287 140.148821 390.9287 
z
" clip-path="url(#pd0c3b24b0b)" style="fill: #0096ff; stroke: #000000"/>
    <path d="M 262.630377 430.774704 
C 264.505646 430.774704 266.304361 430.029652 267.630377 428.703636 
C 268.956392 427.377621 269.701445 425.578905 269.701445 423.703636 
C 269.701445 421.828367 268.956392 420.029652 267.630377 418.703636 
C 266.304361 417.377621 264.505646 416.632569 262.630377 416.632569 
C 260.755108 416.632569 258.956392 417.377621 257.630377 418.703636 
C 256.304361 420.029652 255.559309 421.828367 255.559309 423.703636 
C 255.559309 425.578905 256.304361 427.377621 257.630377 428.703636 
C 258.956392 430.029652 260.755108 430.774704 262.630377 430.774704 
z
" clip-path="url(#pd0c3b24b0b)" style="fill: #0096ff; stroke: #000000"/>
    <path d="M 385.111933 382.188379 
C 386.987202 382.188379 388.785917 381.443327 390.111933 380.117311 
C 391.437948 378.791296 392.183001 376.99258 392.183001 375.117311 
C 392.183001 373.242042 391.437948 371.443327 390.111933 370.117311 
C 388.785917 368.791296 386.987202 368.046243 385.111933 368.046243 
C 383.236664 368.046243 381.437948 368.791296 380.111933 370.117311 
C 378.785917 371.443327 378.040865 373.242042 378.040865 375.117311 
C 378.040865 376.99258 378.785917 378.791296 380.111933 380.117311 
C 381.437948 381.443327 383.236664 382.188379 385.111933 382.188379 
z
" clip-path="url(#pd0c3b24b0b)" style="fill: #0096ff; stroke: #000000"/>
    <path d="M 435.845455 264.890614 
C 437.720724 264.890614 439.519439 264.145562 440.845455 262.819546 
C 442.17147 261.493531 442.916522 259.694815 442.916522 257.819546 
C 442.916522 255.944277 442.17147 254.145562 440.845455 252.819546 
C 439.519439 251.493531 437.720724 250.748479 435.845455 250.748479 
C 433.970185 250.748479 432.17147 251.493531 430.845455 252.819546 
C 429.519439 254.145562 428.774387 255.944277 428.774387 257.819546 
C 428.774387 259.694815 429.519439 261.493531 430.845455 262.819546 
C 432.17147 264.145562 433.970185 264.890614 435.845455 264.890614 
z
" clip-path="url(#pd0c3b24b0b)" style="fill: #0096ff; stroke: #000000"/>
    <path d="M 385.111933 147.592849 
C 386.987202 147.592849 388.785917 146.847797 390.111933 145.521781 
C 391.437948 144.195766 392.183001 142.397051 392.183001 140.521781 
C 392.183001 138.646512 391.437948 136.847797 390.111933 135.521781 
C 388.785917 134.195766 386.987202 133.450714 385.111933 133.450714 
C 383.236664 133.450714 381.437948 134.195766 380.111933 135.521781 
C 378.785917 136.847797 378.040865 138.646512 378.040865 140.521781 
C 378.040865 142.397051 378.785917 144.195766 380.111933 145.521781 
C 381.437948 146.847797 383.236664 147.592849 385.111933 147.592849 
z
" clip-path="url(#pd0c3b24b0b)" style="fill: #0096ff; stroke: #000000"/>
   </g>
   <g id="text_1">
    <g clip-path="url(#pd0c3b24b0b)">
     <!-- 1 -->
     <g transform="translate(258.812877 95.246706)scale(0.12 -0.12)">
      <defs>
       <path id="DejaVuSans-31" d="M 794 531 
L 1825 531 
L 1825 4091 
L 703 3866 
L 703 4441 
L 1819 4666 
L 2450 4666 
L 2450 531 
L 3481 531 
L 3481 0 
L 794 0 
L 794 531 
z
" transform="scale(0.015625)"/>
      </defs>
      <use xlink:href="#DejaVuSans-31"/>
     </g>
    </g>
   </g>
   <g id="text_2">
    <g clip-path="url(#pd0c3b24b0b)">
     <!-- 2 -->
     <g transform="translate(136.331321 143.833031)scale(0.12 -0.12)">
      <defs>
       <path id="DejaVuSans-32" d="M 1228 531 
L 3431 531 
L 3431 0 
L 469 0 
L 469 531 
Q 828 903 1448 1529 
Q 2069 2156 2228 2338 
Q 2531 2678 2651 2914 
Q 2772 3150 2772 3378 
Q 2772 3750 2511 3984 
Q 2250 4219 1831 4219 
Q 1534 4219 1204 4116 
Q 875 4013 500 3803 
L 500 4441 
Q 881 4594 1212 4672 
Q 1544 4750 1819 4750 
Q 2544 4750 2975 4387 
Q 3406 4025 3406 3419 
Q 3406 3131 3298 2873 
Q 3191 2616 2906 2266 
Q 2828 2175 2409 1742 
Q 1991 1309 1228 531 
z
" transform="scale(0.015625)"/>
      </defs>
      <use xlink:href="#DejaVuSans-32"/>
     </g>
    </g>
   </g>
   <g id="text_3">
    <g clip-path="url(#pd0c3b24b0b)">
     <!-- 3 -->
     <g transform="translate(85.597799 261.130796)scale(0.12 -0.12)">
      <defs>
       <path id="DejaVuSans-33" d="M 2597 2516 
Q 3050 2419 3304 2112 
Q 3559 1806 3559 1356 
Q 3559 666 3084 287 
Q 2609 -91 1734 -91 
Q 1441 -91 1130 -33 
Q 819 25 488 141 
L 488 750 
Q 750 597 1062 519 
Q 1375 441 1716 441 
Q 2309 441 2620 675 
Q 2931 909 2931 1356 
Q 2931 1769 2642 2001 
Q 2353 2234 1838 2234 
L 1294 2234 
L 1294 2753 
L 1863 2753 
Q 2328 2753 2575 2939 
Q 2822 3125 2822 3475 
Q 2822 3834 2567 4026 
Q 2313 4219 1838 4219 
Q 1578 4219 1281 4162 
Q 984 4106 628 3988 
L 628 4550 
Q 988 4650 1302 4700 
Q 1616 4750 1894 4750 
Q 2613 4750 3031 4423 
Q 3450 4097 3450 3541 
Q 3450 3153 3228 2886 
Q 3006 2619 2597 2516 
z
" transform="scale(0.015625)"/>
      </defs>
      <use xlink:href="#DejaVuSans-33"/>
     </g>
    </g>
   </g>
   <g id="text_4">
    <g clip-path="url(#pd0c3b24b0b)">
     <!-- 4 -->
     <g transform="translate(136.331321 378.428561)scale(0.12 -0.12)">
      <defs>
       <path id="DejaVuSans-34" d="M 2419 4116 
L 825 1625 
L 2419 1625 
L 2419 4116 
z
M 2253 4666 
L 3047 4666 
L 3047 1625 
L 3713 1625 
L 3713 1100 
L 3047 1100 
L 3047 0 
L 2419 0 
L 2419 1100 
L 313 1100 
L 313 1709 
L 2253 4666 
z
" transform="scale(0.015625)"/>
      </defs>
      <use xlink:href="#DejaVuSans-34"/>
     </g>
    </g>
   </g>
   <g id="text_5">
    <g clip-path="url(#pd0c3b24b0b)">
     <!-- 5 -->
     <g transform="translate(258.812877 427.014886)scale(0.12 -0.12)">
      <defs>
       <path id="DejaVuSans-35" d="M 691 4666 
L 3169 4666 
L 3169 4134 
L 1269 4134 
L 1269 2991 
Q 1406 3038 1543 3061 
Q 1681 3084 1819 3084 
Q 2600 3084 3056 2656 
Q 3513 2228 3513 1497 
Q 3513 744 3044 326 
Q 2575 -91 1722 -91 
Q 1428 -91 1123 -41 
Q 819 9 494 109 
L 494 744 
Q 775 591 1075 516 
Q 1375 441 1709 441 
Q 2250 441 2565 725 
Q 2881 1009 2881 1497 
Q 2881 1984 2565 2268 
Q 2250 2553 1709 2553 
Q 1456 2553 1204 2497 
Q 953 2441 691 2322 
L 691 4666 
z
" transform="scale(0.015625)"/>
      </defs>
      <use xlink:href="#DejaVuSans-35"/>
     </g>
    </g>
   </g>
   <g id="text_6">
    <g clip-path="url(#pd0c3b24b0b)">
     <!-- 6 -->
     <g transform="translate(381.294433 378.428561)scale(0.12 -0.12)">
      <defs>
       <path id="DejaVuSans-36" d="M 2113 2584 
Q 1688 2584 1439 2293 
Q 1191 2003 1191 1497 
Q 1191 994 1439 701 
Q 1688 409 2113 409 
Q 2538 409 2786 701 
Q 3034 994 3034 1497 
Q 3034 2003 2786 2293 
Q 2538 2584 2113 2584 
z
M 3366 4563 
L 3366 3988 
Q 3128 4100 2886 4159 
Q 2644 4219 2406 4219 
Q 1781 4219 1451 3797 
Q 1122 3375 1075 2522 
Q 1259 2794 1537 2939 
Q 1816 3084 2150 3084 
Q 2853 3084 3261 2657 
Q 3669 2231 3669 1497 
Q 3669 778 3244 343 
Q 2819 -91 2113 -91 
Q 1303 -91 875 529 
Q 447 1150 447 2328 
Q 447 3434 972 4092 
Q 1497 4750 2381 4750 
Q 2619 4750 2861 4703 
Q 3103 4656 3366 4563 
z
" transform="scale(0.015625)"/>
      </defs>
      <use xlink:href="#DejaVuSans-36"/>
     </g>
    </g>
   </g>
   <g id="text_7">
    <g clip-path="url(#pd0c3b24b0b)">
     <!-- 7 -->
     <g transform="translate(432.027955 261.130796)scale(0.12 -0.12)">
      <defs>
       <path id="DejaVuSans-37" d="M 525 4666 
L 3525 4666 
L 3525 4397 
L 1831 0 
L 1172 0 
L 2766 4134 
L 525 4134 
L 525 4666 
z
" transform="scale(0.015625)"/>
      </defs>
      <use xlink:href="#DejaVuSans-37"/>
     </g>
    </g>
   </g>
   <g id="text_8">
    <g clip-path="url(#pd0c3b24b0b)">
     <!-- 8 -->
     <g transform="translate(381.294433 143.833031)scale(0.12 -0.12)">
      <defs>
       <path id="DejaVuSans-38" d="M 2034 2216 
Q 1584 2216 1326 1975 
Q 1069 1734 1069 1313 
Q 1069 891 1326 650 
Q 1584 409 2034 409 
Q 2484 409 2743 651 
Q 3003 894 3003 1313 
Q 3003 1734 2745 1975 
Q 2488 2216 2034 2216 
z
M 1403 2484 
Q 997 2584 770 2862 
Q 544 3141 544 3541 
Q 544 4100 942 4425 
Q 1341 4750 2034 4750 
Q 2731 4750 3128 4425 
Q 3525 4100 3525 3541 
Q 3525 3141 3298 2862 
Q 3072 2584 2669 2484 
Q 3125 2378 3379 2068 
Q 3634 1759 3634 1313 
Q 3634 634 3220 271 
Q 2806 -91 2034 -91 
Q 1263 -91 848 271 
Q 434 634 434 1313 
Q 434 1759 690 2068 
Q 947 2378 1403 2484 
z
M 1172 3481 
Q 1172 3119 1398 2916 
Q 1625 2713 2034 2713 
Q 2441 2713 2670 2916 
Q 2900 3119 2900 3481 
Q 2900 3844 2670 4047 
Q 2441 4250 2034 4250 
Q 1625 4250 1398 4047 
Q 1172 3844 1172 3481 
z
" transform="scale(0.015625)"/>
      </defs>
      <use xlink:href="#DejaVuSans-38"/>
     </g>
    </g>
   </g>
  </g>
 </g>
 <defs>
  <clipPath id="pd0c3b24b0b">
   <rect x="63" y="60.48" width="390.6" height="380.52"/>
  </clipPath>
 </defs>
</svg>
