<?xml version="1.0" encoding="utf-8" standalone="no"?>
<!DOCTYPE svg PUBLIC "-//W3C//DTD SVG 1.1//EN"
  "http://www.w3.org/Graphics/SVG/1.1/DTD/svg11.dtd">
<svg xmlns:xlink="http://www.w3.org/1999/xlink" width="504pt" height="504pt" viewBox="0 0 504 504" xmlns="http://www.w3.org/2000/svg" version="1.1">
 <metadata>
  <rdf:RDF xmlns:dc="http://purl.org/dc/elements/1.1/" xmlns:cc="http://creativecommons.org/ns#" xmlns:rdf="http://www.w3.org/1999/02/22-rdf-syntax-ns#">
   <cc:Work>
    <dc:type rdf:resource="http://purl.org/dc/dcmitype/StillImage"/>
    <dc:date>2022-04-06T17:43:08.022749</dc:date>
    <dc:format>image/svg+xml</dc:format>
    <dc:creator>
     <cc:Agent>
      <dc:title>Matplotlib v3.5.1, https://matplotlib.org/</dc:title>
     </cc:Agent>
    </dc:creator>
   </cc:Work>
  </rdf:RDF>
 </metadata>
 <defs>
  <style type="text/css">*{stroke-linejoin: round; stroke-linecap: butt}</style>
 </defs>
 <g id="figure_1">
  <g id="patch_1">
   <path d="M 0 504 
L 504 504 
L 504 0 
L 0 0 
L 0 504 
z
" style="fill: none"/>
  </g>
  <g id="axes_1">
   <g id="patch_2">
    <path d="M 243.622342 86.170682 
Q 195.529573 105.436208 148.993589 124.078101 
" clip-path="url(#p60cc9a842b)" style="fill: none; stroke: #000000; stroke-width: 1.5; stroke-linecap: round"/>
    <path d="M 153.450466 124.447222 
L 148.993589 124.078101 
L 151.963012 120.734072 
L 153.450466 124.447222 
z
" clip-path="url(#p60cc9a842b)" style="stroke: #000000; stroke-width: 1.5; stroke-linecap: round"/>
   </g>
   <g id="PathCollection_1">
    <path d="M 258.3 96.102333 
C 262.493229 96.102333 266.515279 94.436346 269.48034 91.471285 
C 272.445401 88.506224 274.111388 84.484174 274.111388 80.290945 
C 274.111388 76.097716 272.445401 72.075666 269.48034 69.110605 
C 266.515279 66.145544 262.493229 64.479557 258.3 64.479557 
C 254.106771 64.479557 250.084721 66.145544 247.11966 69.110605 
C 244.154599 72.075666 242.488612 76.097716 242.488612 80.290945 
C 242.488612 84.484174 244.154599 88.506224 247.11966 91.471285 
C 250.084721 94.436346 254.106771 96.102333 258.3 96.102333 
z
" clip-path="url(#p60cc9a842b)" style="fill: #0096ff; stroke: #000000"/>
    <path d="M 132.756405 146.393957 
C 136.949634 146.393957 140.971684 144.72797 143.936745 141.762909 
C 146.901806 138.797848 148.567793 134.775798 148.567793 130.582569 
C 148.567793 126.38934 146.901806 122.36729 143.936745 119.402229 
C 140.971684 116.437168 136.949634 114.771181 132.756405 114.771181 
C 128.563176 114.771181 124.541126 116.437168 121.576065 119.402229 
C 118.611004 122.36729 116.945017 126.38934 116.945017 130.582569 
C 116.945017 134.775798 118.611004 138.797848 121.576065 141.762909 
C 124.541126 144.72797 128.563176 146.393957 132.756405 146.393957 
z
" clip-path="url(#p60cc9a842b)" style="fill: #0096ff; stroke: #000000"/>
    <path d="M 80.754545 259.068358 
C 82.629815 259.068358 84.42853 258.323306 85.754545 256.997291 
C 87.080561 255.671275 87.825613 253.87256 87.825613 251.997291 
C 87.825613 250.122022 87.080561 248.323306 85.754545 246.997291 
C 84.42853 245.671275 82.629815 244.926223 80.754545 244.926223 
C 78.879276 244.926223 77.080561 245.671275 75.754545 246.997291 
C 74.42853 248.323306 73.683478 250.122022 73.683478 251.997291 
C 73.683478 253.87256 74.42853 255.671275 75.754545 256.997291 
C 77.080561 258.323306 78.879276 259.068358 80.754545 259.068358 
z
" clip-path="url(#p60cc9a842b)" style="fill: #0096ff; stroke: #000000"/>
    <path d="M 132.756405 380.48308 
C 134.631674 380.48308 136.43039 379.738028 137.756405 378.412012 
C 139.082421 377.085997 139.827473 375.287281 139.827473 373.412012 
C 139.827473 371.536743 139.082421 369.738028 137.756405 368.412012 
C 136.43039 367.085997 134.631674 366.340944 132.756405 366.340944 
C 130.881136 366.340944 129.082421 367.085997 127.756405 368.412012 
C 126.43039 369.738028 125.685337 371.536743 125.685337 373.412012 
C 125.685337 375.287281 126.43039 377.085997 127.756405 378.412012 
C 129.082421 379.738028 130.881136 380.48308 132.756405 380.48308 
z
" clip-path="url(#p60cc9a842b)" style="fill: #0096ff; stroke: #000000"/>
    <path d="M 258.3 430.774704 
C 260.175269 430.774704 261.973984 430.029652 263.3 428.703636 
C 264.626015 427.377621 265.371068 425.578905 265.371068 423.703636 
C 265.371068 421.828367 264.626015 420.029652 263.3 418.703636 
C 261.973984 417.377621 260.175269 416.632569 258.3 416.632569 
C 256.424731 416.632569 254.626015 417.377621 253.3 418.703636 
C 251.973984 420.029652 251.228932 421.828367 251.228932 423.703636 
C 251.228932 425.578905 251.973984 427.377621 253.3 428.703636 
C 254.626015 430.029652 256.424731 430.774704 258.3 430.774704 
z
" clip-path="url(#p60cc9a842b)" style="fill: #0096ff; stroke: #000000"/>
    <path d="M 383.843595 380.48308 
C 385.718864 380.48308 387.517579 379.738028 388.843595 378.412012 
C 390.16961 377.085997 390.914663 375.287281 390.914663 373.412012 
C 390.914663 371.536743 390.16961 369.738028 388.843595 368.412012 
C 387.517579 367.085997 385.718864 366.340944 383.843595 366.340944 
C 381.968326 366.340944 380.16961 367.085997 378.843595 368.412012 
C 377.517579 369.738028 376.772527 371.536743 376.772527 373.412012 
C 376.772527 375.287281 377.517579 377.085997 378.843595 378.412012 
C 380.16961 379.738028 381.968326 380.48308 383.843595 380.48308 
z
" clip-path="url(#p60cc9a842b)" style="fill: #0096ff; stroke: #000000"/>
    <path d="M 435.845455 259.068358 
C 437.720724 259.068358 439.519439 258.323306 440.845455 256.997291 
C 442.17147 255.671275 442.916522 253.87256 442.916522 251.997291 
C 442.916522 250.122022 442.17147 248.323306 440.845455 246.997291 
C 439.519439 245.671275 437.720724 244.926223 435.845455 244.926223 
C 433.970185 244.926223 432.17147 245.671275 430.845455 246.997291 
C 429.519439 248.323306 428.774387 250.122022 428.774387 251.997291 
C 428.774387 253.87256 429.519439 255.671275 430.845455 256.997291 
C 432.17147 258.323306 433.970185 259.068358 435.845455 259.068358 
z
" clip-path="url(#p60cc9a842b)" style="fill: #0096ff; stroke: #000000"/>
    <path d="M 383.843595 137.653637 
C 385.718864 137.653637 387.517579 136.908585 388.843595 135.582569 
C 390.16961 134.256554 390.914663 132.457838 390.914663 130.582569 
C 390.914663 128.7073 390.16961 126.908585 388.843595 125.582569 
C 387.517579 124.256554 385.718864 123.511501 383.843595 123.511501 
C 381.968326 123.511501 380.16961 124.256554 378.843595 125.582569 
C 377.517579 126.908585 376.772527 128.7073 376.772527 130.582569 
C 376.772527 132.457838 377.517579 134.256554 378.843595 135.582569 
C 380.16961 136.908585 381.968326 137.653637 383.843595 137.653637 
z
" clip-path="url(#p60cc9a842b)" style="fill: #0096ff; stroke: #000000"/>
   </g>
   <g id="text_1">
    <g clip-path="url(#p60cc9a842b)">
     <!-- 1 -->
     <g transform="translate(254.4825 83.602195)scale(0.12 -0.12)">
      <defs>
       <path id="DejaVuSans-31" d="M 794 531 
L 1825 531 
L 1825 4091 
L 703 3866 
L 703 4441 
L 1819 4666 
L 2450 4666 
L 2450 531 
L 3481 531 
L 3481 0 
L 794 0 
L 794 531 
z
" transform="scale(0.015625)"/>
      </defs>
      <use xlink:href="#DejaVuSans-31"/>
     </g>
    </g>
   </g>
   <g id="text_2">
    <g clip-path="url(#p60cc9a842b)">
     <!-- 2 -->
     <g transform="translate(128.938905 133.893819)scale(0.12 -0.12)">
      <defs>
       <path id="DejaVuSans-32" d="M 1228 531 
L 3431 531 
L 3431 0 
L 469 0 
L 469 531 
Q 828 903 1448 1529 
Q 2069 2156 2228 2338 
Q 2531 2678 2651 2914 
Q 2772 3150 2772 3378 
Q 2772 3750 2511 3984 
Q 2250 4219 1831 4219 
Q 1534 4219 1204 4116 
Q 875 4013 500 3803 
L 500 4441 
Q 881 4594 1212 4672 
Q 1544 4750 1819 4750 
Q 2544 4750 2975 4387 
Q 3406 4025 3406 3419 
Q 3406 3131 3298 2873 
Q 3191 2616 2906 2266 
Q 2828 2175 2409 1742 
Q 1991 1309 1228 531 
z
" transform="scale(0.015625)"/>
      </defs>
      <use xlink:href="#DejaVuSans-32"/>
     </g>
    </g>
   </g>
   <g id="text_3">
    <g clip-path="url(#p60cc9a842b)">
     <!-- 3 -->
     <g transform="translate(76.937045 255.308541)scale(0.12 -0.12)">
      <defs>
       <path id="DejaVuSans-33" d="M 2597 2516 
Q 3050 2419 3304 2112 
Q 3559 1806 3559 1356 
Q 3559 666 3084 287 
Q 2609 -91 1734 -91 
Q 1441 -91 1130 -33 
Q 819 25 488 141 
L 488 750 
Q 750 597 1062 519 
Q 1375 441 1716 441 
Q 2309 441 2620 675 
Q 2931 909 2931 1356 
Q 2931 1769 2642 2001 
Q 2353 2234 1838 2234 
L 1294 2234 
L 1294 2753 
L 1863 2753 
Q 2328 2753 2575 2939 
Q 2822 3125 2822 3475 
Q 2822 3834 2567 4026 
Q 2313 4219 1838 4219 
Q 1578 4219 1281 4162 
Q 984 4106 628 3988 
L 628 4550 
Q 988 4650 1302 4700 
Q 1616 4750 1894 4750 
Q 2613 4750 3031 4423 
Q 3450 4097 3450 3541 
Q 3450 3153 3228 2886 
Q 3006 2619 2597 2516 
z
" transform="scale(0.015625)"/>
      </defs>
      <use xlink:href="#DejaVuSans-33"/>
     </g>
    </g>
   </g>
   <g id="text_4">
    <g clip-path="url(#p60cc9a842b)">
     <!-- 4 -->
     <g transform="translate(128.938905 376.723262)scale(0.12 -0.12)">
      <defs>
       <path id="DejaVuSans-34" d="M 2419 4116 
L 825 1625 
L 2419 1625 
L 2419 4116 
z
M 2253 4666 
L 3047 4666 
L 3047 1625 
L 3713 1625 
L 3713 1100 
L 3047 1100 
L 3047 0 
L 2419 0 
L 2419 1100 
L 313 1100 
L 313 1709 
L 2253 4666 
z
" transform="scale(0.015625)"/>
      </defs>
      <use xlink:href="#DejaVuSans-34"/>
     </g>
    </g>
   </g>
   <g id="text_5">
    <g clip-path="url(#p60cc9a842b)">
     <!-- 5 -->
     <g transform="translate(254.4825 427.014886)scale(0.12 -0.12)">
      <defs>
       <path id="DejaVuSans-35" d="M 691 4666 
L 3169 4666 
L 3169 4134 
L 1269 4134 
L 1269 2991 
Q 1406 3038 1543 3061 
Q 1681 3084 1819 3084 
Q 2600 3084 3056 2656 
Q 3513 2228 3513 1497 
Q 3513 744 3044 326 
Q 2575 -91 1722 -91 
Q 1428 -91 1123 -41 
Q 819 9 494 109 
L 494 744 
Q 775 591 1075 516 
Q 1375 441 1709 441 
Q 2250 441 2565 725 
Q 2881 1009 2881 1497 
Q 2881 1984 2565 2268 
Q 2250 2553 1709 2553 
Q 1456 2553 1204 2497 
Q 953 2441 691 2322 
L 691 4666 
z
" transform="scale(0.015625)"/>
      </defs>
      <use xlink:href="#DejaVuSans-35"/>
     </g>
    </g>
   </g>
   <g id="text_6">
    <g clip-path="url(#p60cc9a842b)">
     <!-- 6 -->
     <g transform="translate(380.026095 376.723262)scale(0.12 -0.12)">
      <defs>
       <path id="DejaVuSans-36" d="M 2113 2584 
Q 1688 2584 1439 2293 
Q 1191 2003 1191 1497 
Q 1191 994 1439 701 
Q 1688 409 2113 409 
Q 2538 409 2786 701 
Q 3034 994 3034 1497 
Q 3034 2003 2786 2293 
Q 2538 2584 2113 2584 
z
M 3366 4563 
L 3366 3988 
Q 3128 4100 2886 4159 
Q 2644 4219 2406 4219 
Q 1781 4219 1451 3797 
Q 1122 3375 1075 2522 
Q 1259 2794 1537 2939 
Q 1816 3084 2150 3084 
Q 2853 3084 3261 2657 
Q 3669 2231 3669 1497 
Q 3669 778 3244 343 
Q 2819 -91 2113 -91 
Q 1303 -91 875 529 
Q 447 1150 447 2328 
Q 447 3434 972 4092 
Q 1497 4750 2381 4750 
Q 2619 4750 2861 4703 
Q 3103 4656 3366 4563 
z
" transform="scale(0.015625)"/>
      </defs>
      <use xlink:href="#DejaVuSans-36"/>
     </g>
    </g>
   </g>
   <g id="text_7">
    <g clip-path="url(#p60cc9a842b)">
     <!-- 7 -->
     <g transform="translate(432.027955 255.308541)scale(0.12 -0.12)">
      <defs>
       <path id="DejaVuSans-37" d="M 525 4666 
L 3525 4666 
L 3525 4397 
L 1831 0 
L 1172 0 
L 2766 4134 
L 525 4134 
L 525 4666 
z
" transform="scale(0.015625)"/>
      </defs>
      <use xlink:href="#DejaVuSans-37"/>
     </g>
    </g>
   </g>
   <g id="text_8">
    <g clip-path="url(#p60cc9a842b)">
     <!-- 8 -->
     <g transform="translate(380.026095 133.893819)scale(0.12 -0.12)">
      <defs>
       <path id="DejaVuSans-38" d="M 2034 2216 
Q 1584 2216 1326 1975 
Q 1069 1734 1069 1313 
Q 1069 891 1326 650 
Q 1584 409 2034 409 
Q 2484 409 2743 651 
Q 3003 894 3003 1313 
Q 3003 1734 2745 1975 
Q 2488 2216 2034 2216 
z
M 1403 2484 
Q 997 2584 770 2862 
Q 544 3141 544 3541 
Q 544 4100 942 4425 
Q 1341 4750 2034 4750 
Q 2731 4750 3128 4425 
Q 3525 4100 3525 3541 
Q 3525 3141 3298 2862 
Q 3072 2584 2669 2484 
Q 3125 2378 3379 2068 
Q 3634 1759 3634 1313 
Q 3634 634 3220 271 
Q 2806 -91 2034 -91 
Q 1263 -91 848 271 
Q 434 634 434 1313 
Q 434 1759 690 2068 
Q 947 2378 1403 2484 
z
M 1172 3481 
Q 1172 3119 1398 2916 
Q 1625 2713 2034 2713 
Q 2441 2713 2670 2916 
Q 2900 3119 2900 3481 
Q 2900 3844 2670 4047 
Q 2441 4250 2034 4250 
Q 1625 4250 1398 4047 
Q 1172 3844 1172 3481 
z
" transform="scale(0.015625)"/>
      </defs>
      <use xlink:href="#DejaVuSans-38"/>
     </g>
    </g>
   </g>
  </g>
 </g>
 <defs>
  <clipPath id="p60cc9a842b">
   <rect x="63" y="60.48" width="390.6" height="380.52"/>
  </clipPath>
 </defs>
</svg>
