<?xml version="1.0" encoding="utf-8" standalone="no"?>
<!DOCTYPE svg PUBLIC "-//W3C//DTD SVG 1.1//EN"
  "http://www.w3.org/Graphics/SVG/1.1/DTD/svg11.dtd">
<svg xmlns:xlink="http://www.w3.org/1999/xlink" width="504pt" height="504pt" viewBox="0 0 504 504" xmlns="http://www.w3.org/2000/svg" version="1.1">
 <metadata>
  <rdf:RDF xmlns:dc="http://purl.org/dc/elements/1.1/" xmlns:cc="http://creativecommons.org/ns#" xmlns:rdf="http://www.w3.org/1999/02/22-rdf-syntax-ns#">
   <cc:Work>
    <dc:type rdf:resource="http://purl.org/dc/dcmitype/StillImage"/>
    <dc:date>2022-04-06T17:43:07.751754</dc:date>
    <dc:format>image/svg+xml</dc:format>
    <dc:creator>
     <cc:Agent>
      <dc:title>Matplotlib v3.5.1, https://matplotlib.org/</dc:title>
     </cc:Agent>
    </dc:creator>
   </cc:Work>
  </rdf:RDF>
 </metadata>
 <defs>
  <style type="text/css">*{stroke-linejoin: round; stroke-linecap: butt}</style>
 </defs>
 <g id="figure_1">
  <g id="patch_1">
   <path d="M 0 504 
L 504 504 
L 504 0 
L 0 0 
L 0 504 
z
" style="fill: none"/>
  </g>
  <g id="axes_1">
   <g id="patch_2">
    <path d="M 243.640105 99.415953 
Q 201.237282 116.526517 160.389664 133.009519 
" clip-path="url(#p1719e5772c)" style="fill: none; stroke: #000000; stroke-width: 1.5; stroke-linecap: round"/>
    <path d="M 164.847458 133.367384 
L 160.389664 133.009519 
L 163.350633 129.658002 
L 164.847458 133.367384 
z
" clip-path="url(#p1719e5772c)" style="stroke: #000000; stroke-width: 1.5; stroke-linecap: round"/>
   </g>
   <g id="patch_3">
    <path d="M 137.981716 154.107787 
Q 120.532292 195.147283 103.739075 234.64344 
" clip-path="url(#p1719e5772c)" style="fill: none; stroke: #000000; stroke-width: 1.5; stroke-linecap: round"/>
    <path d="M 107.144756 231.744934 
L 103.739075 234.64344 
L 103.463679 230.179791 
L 107.144756 231.744934 
z
" clip-path="url(#p1719e5772c)" style="stroke: #000000; stroke-width: 1.5; stroke-linecap: round"/>
   </g>
   <g id="patch_4">
    <path d="M 103.082785 265.293024 
Q 120.532208 306.332519 137.325425 345.828676 
" clip-path="url(#p1719e5772c)" style="fill: none; stroke: #000000; stroke-width: 1.5; stroke-linecap: round"/>
    <path d="M 137.600821 341.365028 
L 137.325425 345.828676 
L 133.919744 342.930171 
L 137.600821 341.365028 
z
" clip-path="url(#p1719e5772c)" style="stroke: #000000; stroke-width: 1.5; stroke-linecap: round"/>
   </g>
   <g id="patch_5">
    <path d="M 158.829354 367.840859 
Q 201.232178 384.951423 242.079795 401.434425 
" clip-path="url(#p1719e5772c)" style="fill: none; stroke: #000000; stroke-width: 1.5; stroke-linecap: round"/>
    <path d="M 239.118826 398.082908 
L 242.079795 401.434425 
L 237.622001 401.79229 
L 239.118826 398.082908 
z
" clip-path="url(#p1719e5772c)" style="stroke: #000000; stroke-width: 1.5; stroke-linecap: round"/>
   </g>
   <g id="patch_6">
    <path d="M 272.959895 402.064047 
Q 315.362718 384.953483 356.210336 368.470481 
" clip-path="url(#p1719e5772c)" style="fill: none; stroke: #000000; stroke-width: 1.5; stroke-linecap: round"/>
    <path d="M 351.752542 368.112616 
L 356.210336 368.470481 
L 353.249367 371.821998 
L 351.752542 368.112616 
z
" clip-path="url(#p1719e5772c)" style="stroke: #000000; stroke-width: 1.5; stroke-linecap: round"/>
   </g>
   <g id="patch_7">
    <path d="M 378.618284 347.372213 
Q 396.067708 306.332717 412.860925 266.83656 
" clip-path="url(#p1719e5772c)" style="fill: none; stroke: #000000; stroke-width: 1.5; stroke-linecap: round"/>
    <path d="M 409.455244 269.735066 
L 412.860925 266.83656 
L 413.136321 271.300209 
L 409.455244 269.735066 
z
" clip-path="url(#p1719e5772c)" style="stroke: #000000; stroke-width: 1.5; stroke-linecap: round"/>
   </g>
   <g id="patch_8">
    <path d="M 413.517215 236.186976 
Q 396.067792 195.147481 379.274575 155.651324 
" clip-path="url(#p1719e5772c)" style="fill: none; stroke: #000000; stroke-width: 1.5; stroke-linecap: round"/>
    <path d="M 378.999179 160.114972 
L 379.274575 155.651324 
L 382.680256 158.549829 
L 378.999179 160.114972 
z
" clip-path="url(#p1719e5772c)" style="stroke: #000000; stroke-width: 1.5; stroke-linecap: round"/>
   </g>
   <g id="patch_9">
    <path d="M 357.770646 133.639141 
Q 315.367822 116.528577 274.520205 100.045575 
" clip-path="url(#p1719e5772c)" style="fill: none; stroke: #000000; stroke-width: 1.5; stroke-linecap: round"/>
    <path d="M 277.481174 103.397092 
L 274.520205 100.045575 
L 278.977999 99.68771 
L 277.481174 103.397092 
z
" clip-path="url(#p1719e5772c)" style="stroke: #000000; stroke-width: 1.5; stroke-linecap: round"/>
   </g>
   <g id="PathCollection_1">
    <path d="M 258.3 109.311719 
C 262.493229 109.311719 266.515279 107.645731 269.48034 104.68067 
C 272.445401 101.71561 274.111388 97.69356 274.111388 93.500331 
C 274.111388 89.307101 272.445401 85.285051 269.48034 82.319991 
C 266.515279 79.35493 262.493229 77.688942 258.3 77.688942 
C 254.106771 77.688942 250.084721 79.35493 247.11966 82.319991 
C 244.154599 85.285051 242.488612 89.307101 242.488612 93.500331 
C 242.488612 97.69356 244.154599 101.71561 247.11966 104.68067 
C 250.084721 107.645731 254.106771 109.311719 258.3 109.311719 
z
" clip-path="url(#p1719e5772c)" style="fill: #0096ff; stroke: #000000"/>
    <path d="M 144.169459 155.366152 
C 148.362688 155.366152 152.384738 153.700164 155.349799 150.735103 
C 158.31486 147.770043 159.980848 143.747993 159.980848 139.554763 
C 159.980848 135.361534 158.31486 131.339484 155.349799 128.374424 
C 152.384738 125.409363 148.362688 123.743375 144.169459 123.743375 
C 139.97623 123.743375 135.95418 125.409363 132.989119 128.374424 
C 130.024059 131.339484 128.358071 135.361534 128.358071 139.554763 
C 128.358071 143.747993 130.024059 147.770043 132.989119 150.735103 
C 135.95418 153.700164 139.97623 155.366152 144.169459 155.366152 
z
" clip-path="url(#p1719e5772c)" style="fill: #0096ff; stroke: #000000"/>
    <path d="M 96.895041 266.551388 
C 101.088271 266.551388 105.11032 264.885401 108.075381 261.92034 
C 111.040442 258.955279 112.70643 254.933229 112.70643 250.74 
C 112.70643 246.546771 111.040442 242.524721 108.075381 239.55966 
C 105.11032 236.594599 101.088271 234.928612 96.895041 234.928612 
C 92.701812 234.928612 88.679762 236.594599 85.714701 239.55966 
C 82.749641 242.524721 81.083653 246.546771 81.083653 250.74 
C 81.083653 254.933229 82.749641 258.955279 85.714701 261.92034 
C 88.679762 264.885401 92.701812 266.551388 96.895041 266.551388 
z
" clip-path="url(#p1719e5772c)" style="fill: #0096ff; stroke: #000000"/>
    <path d="M 144.169459 377.736625 
C 148.362688 377.736625 152.384738 376.070637 155.349799 373.105576 
C 158.31486 370.140516 159.980848 366.118466 159.980848 361.925237 
C 159.980848 357.732007 158.31486 353.709957 155.349799 350.744897 
C 152.384738 347.779836 148.362688 346.113848 144.169459 346.113848 
C 139.97623 346.113848 135.95418 347.779836 132.989119 350.744897 
C 130.024059 353.709957 128.358071 357.732007 128.358071 361.925237 
C 128.358071 366.118466 130.024059 370.140516 132.989119 373.105576 
C 135.95418 376.070637 139.97623 377.736625 144.169459 377.736625 
z
" clip-path="url(#p1719e5772c)" style="fill: #0096ff; stroke: #000000"/>
    <path d="M 258.3 423.791058 
C 262.493229 423.791058 266.515279 422.12507 269.48034 419.160009 
C 272.445401 416.194949 274.111388 412.172899 274.111388 407.979669 
C 274.111388 403.78644 272.445401 399.76439 269.48034 396.79933 
C 266.515279 393.834269 262.493229 392.168281 258.3 392.168281 
C 254.106771 392.168281 250.084721 393.834269 247.11966 396.79933 
C 244.154599 399.76439 242.488612 403.78644 242.488612 407.979669 
C 242.488612 412.172899 244.154599 416.194949 247.11966 419.160009 
C 250.084721 422.12507 254.106771 423.791058 258.3 423.791058 
z
" clip-path="url(#p1719e5772c)" style="fill: #0096ff; stroke: #000000"/>
    <path d="M 372.430541 377.736625 
C 376.62377 377.736625 380.64582 376.070637 383.610881 373.105576 
C 386.575941 370.140516 388.241929 366.118466 388.241929 361.925237 
C 388.241929 357.732007 386.575941 353.709957 383.610881 350.744897 
C 380.64582 347.779836 376.62377 346.113848 372.430541 346.113848 
C 368.237312 346.113848 364.215262 347.779836 361.250201 350.744897 
C 358.28514 353.709957 356.619152 357.732007 356.619152 361.925237 
C 356.619152 366.118466 358.28514 370.140516 361.250201 373.105576 
C 364.215262 376.070637 368.237312 377.736625 372.430541 377.736625 
z
" clip-path="url(#p1719e5772c)" style="fill: #0096ff; stroke: #000000"/>
    <path d="M 419.704959 266.551388 
C 423.898188 266.551388 427.920238 264.885401 430.885299 261.92034 
C 433.850359 258.955279 435.516347 254.933229 435.516347 250.74 
C 435.516347 246.546771 433.850359 242.524721 430.885299 239.55966 
C 427.920238 236.594599 423.898188 234.928612 419.704959 234.928612 
C 415.511729 234.928612 411.48968 236.594599 408.524619 239.55966 
C 405.559558 242.524721 403.89357 246.546771 403.89357 250.74 
C 403.89357 254.933229 405.559558 258.955279 408.524619 261.92034 
C 411.48968 264.885401 415.511729 266.551388 419.704959 266.551388 
z
" clip-path="url(#p1719e5772c)" style="fill: #0096ff; stroke: #000000"/>
    <path d="M 372.430541 155.366152 
C 376.62377 155.366152 380.64582 153.700164 383.610881 150.735103 
C 386.575941 147.770043 388.241929 143.747993 388.241929 139.554763 
C 388.241929 135.361534 386.575941 131.339484 383.610881 128.374424 
C 380.64582 125.409363 376.62377 123.743375 372.430541 123.743375 
C 368.237312 123.743375 364.215262 125.409363 361.250201 128.374424 
C 358.28514 131.339484 356.619152 135.361534 356.619152 139.554763 
C 356.619152 143.747993 358.28514 147.770043 361.250201 150.735103 
C 364.215262 153.700164 368.237312 155.366152 372.430541 155.366152 
z
" clip-path="url(#p1719e5772c)" style="fill: #0096ff; stroke: #000000"/>
   </g>
   <g id="text_1">
    <g clip-path="url(#p1719e5772c)">
     <!-- 1 -->
     <g transform="translate(254.4825 96.811581)scale(0.12 -0.12)">
      <defs>
       <path id="DejaVuSans-31" d="M 794 531 
L 1825 531 
L 1825 4091 
L 703 3866 
L 703 4441 
L 1819 4666 
L 2450 4666 
L 2450 531 
L 3481 531 
L 3481 0 
L 794 0 
L 794 531 
z
" transform="scale(0.015625)"/>
      </defs>
      <use xlink:href="#DejaVuSans-31"/>
     </g>
    </g>
   </g>
   <g id="text_2">
    <g clip-path="url(#p1719e5772c)">
     <!-- 2 -->
     <g transform="translate(140.351959 142.866013)scale(0.12 -0.12)">
      <defs>
       <path id="DejaVuSans-32" d="M 1228 531 
L 3431 531 
L 3431 0 
L 469 0 
L 469 531 
Q 828 903 1448 1529 
Q 2069 2156 2228 2338 
Q 2531 2678 2651 2914 
Q 2772 3150 2772 3378 
Q 2772 3750 2511 3984 
Q 2250 4219 1831 4219 
Q 1534 4219 1204 4116 
Q 875 4013 500 3803 
L 500 4441 
Q 881 4594 1212 4672 
Q 1544 4750 1819 4750 
Q 2544 4750 2975 4387 
Q 3406 4025 3406 3419 
Q 3406 3131 3298 2873 
Q 3191 2616 2906 2266 
Q 2828 2175 2409 1742 
Q 1991 1309 1228 531 
z
" transform="scale(0.015625)"/>
      </defs>
      <use xlink:href="#DejaVuSans-32"/>
     </g>
    </g>
   </g>
   <g id="text_3">
    <g clip-path="url(#p1719e5772c)">
     <!-- 3 -->
     <g transform="translate(93.077541 254.05125)scale(0.12 -0.12)">
      <defs>
       <path id="DejaVuSans-33" d="M 2597 2516 
Q 3050 2419 3304 2112 
Q 3559 1806 3559 1356 
Q 3559 666 3084 287 
Q 2609 -91 1734 -91 
Q 1441 -91 1130 -33 
Q 819 25 488 141 
L 488 750 
Q 750 597 1062 519 
Q 1375 441 1716 441 
Q 2309 441 2620 675 
Q 2931 909 2931 1356 
Q 2931 1769 2642 2001 
Q 2353 2234 1838 2234 
L 1294 2234 
L 1294 2753 
L 1863 2753 
Q 2328 2753 2575 2939 
Q 2822 3125 2822 3475 
Q 2822 3834 2567 4026 
Q 2313 4219 1838 4219 
Q 1578 4219 1281 4162 
Q 984 4106 628 3988 
L 628 4550 
Q 988 4650 1302 4700 
Q 1616 4750 1894 4750 
Q 2613 4750 3031 4423 
Q 3450 4097 3450 3541 
Q 3450 3153 3228 2886 
Q 3006 2619 2597 2516 
z
" transform="scale(0.015625)"/>
      </defs>
      <use xlink:href="#DejaVuSans-33"/>
     </g>
    </g>
   </g>
   <g id="text_4">
    <g clip-path="url(#p1719e5772c)">
     <!-- 4 -->
     <g transform="translate(140.351959 365.236487)scale(0.12 -0.12)">
      <defs>
       <path id="DejaVuSans-34" d="M 2419 4116 
L 825 1625 
L 2419 1625 
L 2419 4116 
z
M 2253 4666 
L 3047 4666 
L 3047 1625 
L 3713 1625 
L 3713 1100 
L 3047 1100 
L 3047 0 
L 2419 0 
L 2419 1100 
L 313 1100 
L 313 1709 
L 2253 4666 
z
" transform="scale(0.015625)"/>
      </defs>
      <use xlink:href="#DejaVuSans-34"/>
     </g>
    </g>
   </g>
   <g id="text_5">
    <g clip-path="url(#p1719e5772c)">
     <!-- 5 -->
     <g transform="translate(254.4825 411.290919)scale(0.12 -0.12)">
      <defs>
       <path id="DejaVuSans-35" d="M 691 4666 
L 3169 4666 
L 3169 4134 
L 1269 4134 
L 1269 2991 
Q 1406 3038 1543 3061 
Q 1681 3084 1819 3084 
Q 2600 3084 3056 2656 
Q 3513 2228 3513 1497 
Q 3513 744 3044 326 
Q 2575 -91 1722 -91 
Q 1428 -91 1123 -41 
Q 819 9 494 109 
L 494 744 
Q 775 591 1075 516 
Q 1375 441 1709 441 
Q 2250 441 2565 725 
Q 2881 1009 2881 1497 
Q 2881 1984 2565 2268 
Q 2250 2553 1709 2553 
Q 1456 2553 1204 2497 
Q 953 2441 691 2322 
L 691 4666 
z
" transform="scale(0.015625)"/>
      </defs>
      <use xlink:href="#DejaVuSans-35"/>
     </g>
    </g>
   </g>
   <g id="text_6">
    <g clip-path="url(#p1719e5772c)">
     <!-- 6 -->
     <g transform="translate(368.613041 365.236487)scale(0.12 -0.12)">
      <defs>
       <path id="DejaVuSans-36" d="M 2113 2584 
Q 1688 2584 1439 2293 
Q 1191 2003 1191 1497 
Q 1191 994 1439 701 
Q 1688 409 2113 409 
Q 2538 409 2786 701 
Q 3034 994 3034 1497 
Q 3034 2003 2786 2293 
Q 2538 2584 2113 2584 
z
M 3366 4563 
L 3366 3988 
Q 3128 4100 2886 4159 
Q 2644 4219 2406 4219 
Q 1781 4219 1451 3797 
Q 1122 3375 1075 2522 
Q 1259 2794 1537 2939 
Q 1816 3084 2150 3084 
Q 2853 3084 3261 2657 
Q 3669 2231 3669 1497 
Q 3669 778 3244 343 
Q 2819 -91 2113 -91 
Q 1303 -91 875 529 
Q 447 1150 447 2328 
Q 447 3434 972 4092 
Q 1497 4750 2381 4750 
Q 2619 4750 2861 4703 
Q 3103 4656 3366 4563 
z
" transform="scale(0.015625)"/>
      </defs>
      <use xlink:href="#DejaVuSans-36"/>
     </g>
    </g>
   </g>
   <g id="text_7">
    <g clip-path="url(#p1719e5772c)">
     <!-- 7 -->
     <g transform="translate(415.887459 254.05125)scale(0.12 -0.12)">
      <defs>
       <path id="DejaVuSans-37" d="M 525 4666 
L 3525 4666 
L 3525 4397 
L 1831 0 
L 1172 0 
L 2766 4134 
L 525 4134 
L 525 4666 
z
" transform="scale(0.015625)"/>
      </defs>
      <use xlink:href="#DejaVuSans-37"/>
     </g>
    </g>
   </g>
   <g id="text_8">
    <g clip-path="url(#p1719e5772c)">
     <!-- 8 -->
     <g transform="translate(368.613041 142.866013)scale(0.12 -0.12)">
      <defs>
       <path id="DejaVuSans-38" d="M 2034 2216 
Q 1584 2216 1326 1975 
Q 1069 1734 1069 1313 
Q 1069 891 1326 650 
Q 1584 409 2034 409 
Q 2484 409 2743 651 
Q 3003 894 3003 1313 
Q 3003 1734 2745 1975 
Q 2488 2216 2034 2216 
z
M 1403 2484 
Q 997 2584 770 2862 
Q 544 3141 544 3541 
Q 544 4100 942 4425 
Q 1341 4750 2034 4750 
Q 2731 4750 3128 4425 
Q 3525 4100 3525 3541 
Q 3525 3141 3298 2862 
Q 3072 2584 2669 2484 
Q 3125 2378 3379 2068 
Q 3634 1759 3634 1313 
Q 3634 634 3220 271 
Q 2806 -91 2034 -91 
Q 1263 -91 848 271 
Q 434 634 434 1313 
Q 434 1759 690 2068 
Q 947 2378 1403 2484 
z
M 1172 3481 
Q 1172 3119 1398 2916 
Q 1625 2713 2034 2713 
Q 2441 2713 2670 2916 
Q 2900 3119 2900 3481 
Q 2900 3844 2670 4047 
Q 2441 4250 2034 4250 
Q 1625 4250 1398 4047 
Q 1172 3844 1172 3481 
z
" transform="scale(0.015625)"/>
      </defs>
      <use xlink:href="#DejaVuSans-38"/>
     </g>
    </g>
   </g>
  </g>
 </g>
 <defs>
  <clipPath id="p1719e5772c">
   <rect x="63" y="60.48" width="390.6" height="380.52"/>
  </clipPath>
 </defs>
</svg>
