<?xml version="1.0" encoding="utf-8" standalone="no"?>
<!DOCTYPE svg PUBLIC "-//W3C//DTD SVG 1.1//EN"
  "http://www.w3.org/Graphics/SVG/1.1/DTD/svg11.dtd">
<svg xmlns:xlink="http://www.w3.org/1999/xlink" width="504pt" height="504pt" viewBox="0 0 504 504" xmlns="http://www.w3.org/2000/svg" version="1.1">
 <metadata>
  <rdf:RDF xmlns:dc="http://purl.org/dc/elements/1.1/" xmlns:cc="http://creativecommons.org/ns#" xmlns:rdf="http://www.w3.org/1999/02/22-rdf-syntax-ns#">
   <cc:Work>
    <dc:type rdf:resource="http://purl.org/dc/dcmitype/StillImage"/>
    <dc:date>2022-03-23T19:26:17.716445</dc:date>
    <dc:format>image/svg+xml</dc:format>
    <dc:creator>
     <cc:Agent>
      <dc:title>Matplotlib v3.5.1, https://matplotlib.org/</dc:title>
     </cc:Agent>
    </dc:creator>
   </cc:Work>
  </rdf:RDF>
 </metadata>
 <defs>
  <style type="text/css">*{stroke-linejoin: round; stroke-linecap: butt}</style>
 </defs>
 <g id="figure_1">
  <g id="patch_1">
   <path d="M 0 504 
L 504 504 
L 504 0 
L 0 0 
z
" style="fill: #ffffff"/>
  </g>
  <g id="axes_1">
   <g id="patch_2">
    <path d="M 137.396093 372.756048 
Q 190.511089 394.033433 242.0693 414.687184 
" clip-path="url(#p16fc2e9bce)" style="fill: none; stroke: #000000; stroke-width: 1.5; stroke-linecap: round"/>
    <path d="M 239.099877 411.343155 
L 242.0693 414.687184 
L 237.612423 415.056305 
L 239.099877 411.343155 
z
" clip-path="url(#p16fc2e9bce)" style="stroke: #000000; stroke-width: 1.5; stroke-linecap: round"/>
   </g>
   <g id="PathCollection_1">
    <path d="M 258.3 82.776364 
C 259.626015 82.776364 260.897899 82.249532 261.835534 81.311898 
C 262.773168 80.374263 263.3 79.102379 263.3 77.776364 
C 263.3 76.450348 262.773168 75.178464 261.835534 74.24083 
C 260.897899 73.303195 259.626015 72.776364 258.3 72.776364 
C 256.973985 72.776364 255.702101 73.303195 254.764466 74.24083 
C 253.826832 75.178464 253.3 76.450348 253.3 77.776364 
C 253.3 79.102379 253.826832 80.374263 254.764466 81.311898 
C 255.702101 82.249532 256.973985 82.776364 258.3 82.776364 
z
" clip-path="url(#p16fc2e9bce)" style="fill: #ff7e79; stroke: #000000"/>
    <path d="M 132.756405 133.067988 
C 134.082421 133.067988 135.354304 132.541156 136.291939 131.603522 
C 137.229574 130.665887 137.756405 129.394003 137.756405 128.067988 
C 137.756405 126.741972 137.229574 125.470089 136.291939 124.532454 
C 135.354304 123.594819 134.082421 123.067988 132.756405 123.067988 
C 131.43039 123.067988 130.158506 123.594819 129.220871 124.532454 
C 128.283237 125.470089 127.756405 126.741972 127.756405 128.067988 
C 127.756405 129.394003 128.283237 130.665887 129.220871 131.603522 
C 130.158506 132.541156 131.43039 133.067988 132.756405 133.067988 
z
" clip-path="url(#p16fc2e9bce)" style="fill: #ff7e79; stroke: #000000"/>
    <path d="M 80.754545 254.482709 
C 82.080561 254.482709 83.352445 253.955878 84.290079 253.018243 
C 85.227714 252.080609 85.754545 250.808725 85.754545 249.482709 
C 85.754545 248.156694 85.227714 246.88481 84.290079 245.947175 
C 83.352445 245.009541 82.080561 244.482709 80.754545 244.482709 
C 79.42853 244.482709 78.156646 245.009541 77.219012 245.947175 
C 76.281377 246.88481 75.754545 248.156694 75.754545 249.482709 
C 75.754545 250.808725 76.281377 252.080609 77.219012 253.018243 
C 78.156646 253.955878 79.42853 254.482709 80.754545 254.482709 
z
" clip-path="url(#p16fc2e9bce)" style="fill: #ff7e79; stroke: #000000"/>
    <path d="M 132.756405 375.897431 
C 134.082421 375.897431 135.354304 375.370599 136.291939 374.432965 
C 137.229574 373.49533 137.756405 372.223446 137.756405 370.897431 
C 137.756405 369.571415 137.229574 368.299531 136.291939 367.361897 
C 135.354304 366.424262 134.082421 365.897431 132.756405 365.897431 
C 131.43039 365.897431 130.158506 366.424262 129.220871 367.361897 
C 128.283237 368.299531 127.756405 369.571415 127.756405 370.897431 
C 127.756405 372.223446 128.283237 373.49533 129.220871 374.432965 
C 130.158506 375.370599 131.43039 375.897431 132.756405 375.897431 
z
" clip-path="url(#p16fc2e9bce)" style="fill: #ff7e79; stroke: #000000"/>
    <path d="M 258.3 437.000443 
C 262.493229 437.000443 266.515279 435.334456 269.48034 432.369395 
C 272.445401 429.404334 274.111388 425.382284 274.111388 421.189055 
C 274.111388 416.995826 272.445401 412.973776 269.48034 410.008715 
C 266.515279 407.043654 262.493229 405.377667 258.3 405.377667 
C 254.106771 405.377667 250.084721 407.043654 247.11966 410.008715 
C 244.154599 412.973776 242.488612 416.995826 242.488612 421.189055 
C 242.488612 425.382284 244.154599 429.404334 247.11966 432.369395 
C 250.084721 435.334456 254.106771 437.000443 258.3 437.000443 
z
" clip-path="url(#p16fc2e9bce)" style="fill: #ff7e79; stroke: #000000"/>
    <path d="M 383.843595 375.897431 
C 385.16961 375.897431 386.441494 375.370599 387.379129 374.432965 
C 388.316763 373.49533 388.843595 372.223446 388.843595 370.897431 
C 388.843595 369.571415 388.316763 368.299531 387.379129 367.361897 
C 386.441494 366.424262 385.16961 365.897431 383.843595 365.897431 
C 382.517579 365.897431 381.245696 366.424262 380.308061 367.361897 
C 379.370426 368.299531 378.843595 369.571415 378.843595 370.897431 
C 378.843595 372.223446 379.370426 373.49533 380.308061 374.432965 
C 381.245696 375.370599 382.517579 375.897431 383.843595 375.897431 
z
" clip-path="url(#p16fc2e9bce)" style="fill: #ff7e79; stroke: #000000"/>
    <path d="M 435.845455 254.482709 
C 437.17147 254.482709 438.443354 253.955878 439.380988 253.018243 
C 440.318623 252.080609 440.845455 250.808725 440.845455 249.482709 
C 440.845455 248.156694 440.318623 246.88481 439.380988 245.947175 
C 438.443354 245.009541 437.17147 244.482709 435.845455 244.482709 
C 434.519439 244.482709 433.247555 245.009541 432.309921 245.947175 
C 431.372286 246.88481 430.845455 248.156694 430.845455 249.482709 
C 430.845455 250.808725 431.372286 252.080609 432.309921 253.018243 
C 433.247555 253.955878 434.519439 254.482709 435.845455 254.482709 
z
" clip-path="url(#p16fc2e9bce)" style="fill: #ff7e79; stroke: #000000"/>
    <path d="M 383.843595 133.067988 
C 385.16961 133.067988 386.441494 132.541156 387.379129 131.603522 
C 388.316763 130.665887 388.843595 129.394003 388.843595 128.067988 
C 388.843595 126.741972 388.316763 125.470089 387.379129 124.532454 
C 386.441494 123.594819 385.16961 123.067988 383.843595 123.067988 
C 382.517579 123.067988 381.245696 123.594819 380.308061 124.532454 
C 379.370426 125.470089 378.843595 126.741972 378.843595 128.067988 
C 378.843595 129.394003 379.370426 130.665887 380.308061 131.603522 
C 381.245696 132.541156 382.517579 133.067988 383.843595 133.067988 
z
" clip-path="url(#p16fc2e9bce)" style="fill: #ff7e79; stroke: #000000"/>
   </g>
   <g id="text_1">
    <g clip-path="url(#p16fc2e9bce)">
     <!-- 0 -->
     <g transform="translate(254.4825 81.087614)scale(0.12 -0.12)">
      <defs>
       <path id="DejaVuSans-30" d="M 2034 4250 
Q 1547 4250 1301 3770 
Q 1056 3291 1056 2328 
Q 1056 1369 1301 889 
Q 1547 409 2034 409 
Q 2525 409 2770 889 
Q 3016 1369 3016 2328 
Q 3016 3291 2770 3770 
Q 2525 4250 2034 4250 
z
M 2034 4750 
Q 2819 4750 3233 4129 
Q 3647 3509 3647 2328 
Q 3647 1150 3233 529 
Q 2819 -91 2034 -91 
Q 1250 -91 836 529 
Q 422 1150 422 2328 
Q 422 3509 836 4129 
Q 1250 4750 2034 4750 
z
" transform="scale(0.015625)"/>
      </defs>
      <use xlink:href="#DejaVuSans-30"/>
     </g>
    </g>
   </g>
   <g id="text_2">
    <g clip-path="url(#p16fc2e9bce)">
     <!-- 1 -->
     <g transform="translate(128.938905 131.379238)scale(0.12 -0.12)">
      <defs>
       <path id="DejaVuSans-31" d="M 794 531 
L 1825 531 
L 1825 4091 
L 703 3866 
L 703 4441 
L 1819 4666 
L 2450 4666 
L 2450 531 
L 3481 531 
L 3481 0 
L 794 0 
L 794 531 
z
" transform="scale(0.015625)"/>
      </defs>
      <use xlink:href="#DejaVuSans-31"/>
     </g>
    </g>
   </g>
   <g id="text_3">
    <g clip-path="url(#p16fc2e9bce)">
     <!-- 2 -->
     <g transform="translate(76.937045 252.793959)scale(0.12 -0.12)">
      <defs>
       <path id="DejaVuSans-32" d="M 1228 531 
L 3431 531 
L 3431 0 
L 469 0 
L 469 531 
Q 828 903 1448 1529 
Q 2069 2156 2228 2338 
Q 2531 2678 2651 2914 
Q 2772 3150 2772 3378 
Q 2772 3750 2511 3984 
Q 2250 4219 1831 4219 
Q 1534 4219 1204 4116 
Q 875 4013 500 3803 
L 500 4441 
Q 881 4594 1212 4672 
Q 1544 4750 1819 4750 
Q 2544 4750 2975 4387 
Q 3406 4025 3406 3419 
Q 3406 3131 3298 2873 
Q 3191 2616 2906 2266 
Q 2828 2175 2409 1742 
Q 1991 1309 1228 531 
z
" transform="scale(0.015625)"/>
      </defs>
      <use xlink:href="#DejaVuSans-32"/>
     </g>
    </g>
   </g>
   <g id="text_4">
    <g clip-path="url(#p16fc2e9bce)">
     <!-- 3 -->
     <g transform="translate(128.938905 374.208681)scale(0.12 -0.12)">
      <defs>
       <path id="DejaVuSans-33" d="M 2597 2516 
Q 3050 2419 3304 2112 
Q 3559 1806 3559 1356 
Q 3559 666 3084 287 
Q 2609 -91 1734 -91 
Q 1441 -91 1130 -33 
Q 819 25 488 141 
L 488 750 
Q 750 597 1062 519 
Q 1375 441 1716 441 
Q 2309 441 2620 675 
Q 2931 909 2931 1356 
Q 2931 1769 2642 2001 
Q 2353 2234 1838 2234 
L 1294 2234 
L 1294 2753 
L 1863 2753 
Q 2328 2753 2575 2939 
Q 2822 3125 2822 3475 
Q 2822 3834 2567 4026 
Q 2313 4219 1838 4219 
Q 1578 4219 1281 4162 
Q 984 4106 628 3988 
L 628 4550 
Q 988 4650 1302 4700 
Q 1616 4750 1894 4750 
Q 2613 4750 3031 4423 
Q 3450 4097 3450 3541 
Q 3450 3153 3228 2886 
Q 3006 2619 2597 2516 
z
" transform="scale(0.015625)"/>
      </defs>
      <use xlink:href="#DejaVuSans-33"/>
     </g>
    </g>
   </g>
   <g id="text_5">
    <g clip-path="url(#p16fc2e9bce)">
     <!-- 4 -->
     <g transform="translate(254.4825 424.500305)scale(0.12 -0.12)">
      <defs>
       <path id="DejaVuSans-34" d="M 2419 4116 
L 825 1625 
L 2419 1625 
L 2419 4116 
z
M 2253 4666 
L 3047 4666 
L 3047 1625 
L 3713 1625 
L 3713 1100 
L 3047 1100 
L 3047 0 
L 2419 0 
L 2419 1100 
L 313 1100 
L 313 1709 
L 2253 4666 
z
" transform="scale(0.015625)"/>
      </defs>
      <use xlink:href="#DejaVuSans-34"/>
     </g>
    </g>
   </g>
   <g id="text_6">
    <g clip-path="url(#p16fc2e9bce)">
     <!-- 5 -->
     <g transform="translate(380.026095 374.208681)scale(0.12 -0.12)">
      <defs>
       <path id="DejaVuSans-35" d="M 691 4666 
L 3169 4666 
L 3169 4134 
L 1269 4134 
L 1269 2991 
Q 1406 3038 1543 3061 
Q 1681 3084 1819 3084 
Q 2600 3084 3056 2656 
Q 3513 2228 3513 1497 
Q 3513 744 3044 326 
Q 2575 -91 1722 -91 
Q 1428 -91 1123 -41 
Q 819 9 494 109 
L 494 744 
Q 775 591 1075 516 
Q 1375 441 1709 441 
Q 2250 441 2565 725 
Q 2881 1009 2881 1497 
Q 2881 1984 2565 2268 
Q 2250 2553 1709 2553 
Q 1456 2553 1204 2497 
Q 953 2441 691 2322 
L 691 4666 
z
" transform="scale(0.015625)"/>
      </defs>
      <use xlink:href="#DejaVuSans-35"/>
     </g>
    </g>
   </g>
   <g id="text_7">
    <g clip-path="url(#p16fc2e9bce)">
     <!-- 6 -->
     <g transform="translate(432.027955 252.793959)scale(0.12 -0.12)">
      <defs>
       <path id="DejaVuSans-36" d="M 2113 2584 
Q 1688 2584 1439 2293 
Q 1191 2003 1191 1497 
Q 1191 994 1439 701 
Q 1688 409 2113 409 
Q 2538 409 2786 701 
Q 3034 994 3034 1497 
Q 3034 2003 2786 2293 
Q 2538 2584 2113 2584 
z
M 3366 4563 
L 3366 3988 
Q 3128 4100 2886 4159 
Q 2644 4219 2406 4219 
Q 1781 4219 1451 3797 
Q 1122 3375 1075 2522 
Q 1259 2794 1537 2939 
Q 1816 3084 2150 3084 
Q 2853 3084 3261 2657 
Q 3669 2231 3669 1497 
Q 3669 778 3244 343 
Q 2819 -91 2113 -91 
Q 1303 -91 875 529 
Q 447 1150 447 2328 
Q 447 3434 972 4092 
Q 1497 4750 2381 4750 
Q 2619 4750 2861 4703 
Q 3103 4656 3366 4563 
z
" transform="scale(0.015625)"/>
      </defs>
      <use xlink:href="#DejaVuSans-36"/>
     </g>
    </g>
   </g>
   <g id="text_8">
    <g clip-path="url(#p16fc2e9bce)">
     <!-- 7 -->
     <g transform="translate(380.026095 131.379238)scale(0.12 -0.12)">
      <defs>
       <path id="DejaVuSans-37" d="M 525 4666 
L 3525 4666 
L 3525 4397 
L 1831 0 
L 1172 0 
L 2766 4134 
L 525 4134 
L 525 4666 
z
" transform="scale(0.015625)"/>
      </defs>
      <use xlink:href="#DejaVuSans-37"/>
     </g>
    </g>
   </g>
  </g>
 </g>
 <defs>
  <clipPath id="p16fc2e9bce">
   <rect x="63" y="60.48" width="390.6" height="380.52"/>
  </clipPath>
 </defs>
</svg>
