<?xml version="1.0" encoding="utf-8" standalone="no"?>
<!DOCTYPE svg PUBLIC "-//W3C//DTD SVG 1.1//EN"
  "http://www.w3.org/Graphics/SVG/1.1/DTD/svg11.dtd">
<svg xmlns:xlink="http://www.w3.org/1999/xlink" width="504pt" height="504pt" viewBox="0 0 504 504" xmlns="http://www.w3.org/2000/svg" version="1.1">
 <metadata>
  <rdf:RDF xmlns:dc="http://purl.org/dc/elements/1.1/" xmlns:cc="http://creativecommons.org/ns#" xmlns:rdf="http://www.w3.org/1999/02/22-rdf-syntax-ns#">
   <cc:Work>
    <dc:type rdf:resource="http://purl.org/dc/dcmitype/StillImage"/>
    <dc:date>2022-03-23T19:26:17.299428</dc:date>
    <dc:format>image/svg+xml</dc:format>
    <dc:creator>
     <cc:Agent>
      <dc:title>Matplotlib v3.5.1, https://matplotlib.org/</dc:title>
     </cc:Agent>
    </dc:creator>
   </cc:Work>
  </rdf:RDF>
 </metadata>
 <defs>
  <style type="text/css">*{stroke-linejoin: round; stroke-linecap: butt}</style>
 </defs>
 <g id="figure_1">
  <g id="patch_1">
   <path d="M 0 504 
L 504 504 
L 504 0 
L 0 0 
z
" style="fill: #ffffff"/>
  </g>
  <g id="axes_1">
   <g id="patch_2">
    <path d="M 101.387427 261.112385 
Q 120.225576 306.182157 138.416977 349.704604 
" clip-path="url(#pc7a7336e2d)" style="fill: none; stroke: #000000; stroke-width: 1.5; stroke-linecap: round"/>
    <path d="M 138.719689 345.242725 
L 138.416977 349.704604 
L 135.029101 346.785307 
L 138.719689 345.242725 
z
" clip-path="url(#pc7a7336e2d)" style="stroke: #000000; stroke-width: 1.5; stroke-linecap: round"/>
   </g>
   <g id="patch_3">
    <path d="M 159.790153 371.846694 
Q 205.365458 390.554608 249.389332 408.625685 
" clip-path="url(#pc7a7336e2d)" style="fill: none; stroke: #000000; stroke-width: 1.5; stroke-linecap: round"/>
    <path d="M 246.448425 405.25655 
L 249.389332 408.625685 
L 244.929481 408.956929 
L 246.448425 405.25655 
z
" clip-path="url(#pc7a7336e2d)" style="stroke: #000000; stroke-width: 1.5; stroke-linecap: round"/>
   </g>
   <g id="patch_4">
    <path d="M 280.195144 409.261808 
Q 325.770449 390.553894 369.794323 372.482818 
" clip-path="url(#pc7a7336e2d)" style="fill: none; stroke: #000000; stroke-width: 1.5; stroke-linecap: round"/>
    <path d="M 365.334471 372.151573 
L 369.794323 372.482818 
L 366.853416 375.851952 
L 365.334471 372.151573 
z
" clip-path="url(#pc7a7336e2d)" style="stroke: #000000; stroke-width: 1.5; stroke-linecap: round"/>
   </g>
   <g id="patch_5">
    <path d="M 371.34831 359.839301 
Q 240.633232 306.18291 111.469585 253.163356 
" clip-path="url(#pc7a7336e2d)" style="fill: none; stroke: #000000; stroke-width: 1.5; stroke-linecap: round"/>
    <path d="M 114.410491 256.532491 
L 111.469585 253.163356 
L 115.929436 252.832112 
L 114.410491 256.532491 
z
" clip-path="url(#pc7a7336e2d)" style="stroke: #000000; stroke-width: 1.5; stroke-linecap: round"/>
   </g>
   <g id="PathCollection_1">
    <path d="M 265.567084 82.776364 
C 266.8931 82.776364 268.164983 82.249532 269.102618 81.311898 
C 270.040252 80.374263 270.567084 79.102379 270.567084 77.776364 
C 270.567084 76.450348 270.040252 75.178464 269.102618 74.24083 
C 268.164983 73.303195 266.8931 72.776364 265.567084 72.776364 
C 264.241069 72.776364 262.969185 73.303195 262.03155 74.24083 
C 261.093916 75.178464 260.567084 76.450348 260.567084 77.776364 
C 260.567084 79.102379 261.093916 80.374263 262.03155 81.311898 
C 262.969185 82.249532 264.241069 82.776364 265.567084 82.776364 
z
" clip-path="url(#pc7a7336e2d)" style="fill: #0096ff; stroke: #000000"/>
    <path d="M 145.162094 132.200633 
C 146.488109 132.200633 147.759993 131.673802 148.697627 130.736167 
C 149.635262 129.798532 150.162094 128.526649 150.162094 127.200633 
C 150.162094 125.874618 149.635262 124.602734 148.697627 123.665099 
C 147.759993 122.727465 146.488109 122.200633 145.162094 122.200633 
C 143.836078 122.200633 142.564194 122.727465 141.62656 123.665099 
C 140.688925 124.602734 140.162094 125.874618 140.162094 127.200633 
C 140.162094 128.526649 140.688925 129.798532 141.62656 130.736167 
C 142.564194 131.673802 143.836078 132.200633 145.162094 132.200633 
z
" clip-path="url(#pc7a7336e2d)" style="fill: #0096ff; stroke: #000000"/>
    <path d="M 95.288714 262.332763 
C 99.481943 262.332763 103.503993 260.666775 106.469053 257.701715 
C 109.434114 254.736654 111.100102 250.714604 111.100102 246.521375 
C 111.100102 242.328146 109.434114 238.306096 106.469053 235.341035 
C 103.503993 232.375974 99.481943 230.709986 95.288714 230.709986 
C 91.095484 230.709986 87.073434 232.375974 84.108374 235.341035 
C 81.143313 238.306096 79.477325 242.328146 79.477325 246.521375 
C 79.477325 250.714604 81.143313 254.736654 84.108374 257.701715 
C 87.073434 260.666775 91.095484 262.332763 95.288714 262.332763 
z
" clip-path="url(#pc7a7336e2d)" style="fill: #0096ff; stroke: #000000"/>
    <path d="M 145.162094 381.653505 
C 149.355323 381.653505 153.377373 379.987517 156.342433 377.022456 
C 159.307494 374.057395 160.973482 370.035346 160.973482 365.842116 
C 160.973482 361.648887 159.307494 357.626837 156.342433 354.661776 
C 153.377373 351.696716 149.355323 350.030728 145.162094 350.030728 
C 140.968864 350.030728 136.946814 351.696716 133.981754 354.661776 
C 131.016693 357.626837 129.350705 361.648887 129.350705 365.842116 
C 129.350705 370.035346 131.016693 374.057395 133.981754 377.022456 
C 136.946814 379.987517 140.968864 381.653505 145.162094 381.653505 
z
" clip-path="url(#pc7a7336e2d)" style="fill: #0096ff; stroke: #000000"/>
    <path d="M 265.567084 431.077774 
C 269.760313 431.077774 273.782363 429.411786 276.747424 426.446726 
C 279.712485 423.481665 281.378472 419.459615 281.378472 415.266386 
C 281.378472 411.073157 279.712485 407.051107 276.747424 404.086046 
C 273.782363 401.120985 269.760313 399.454998 265.567084 399.454998 
C 261.373855 399.454998 257.351805 401.120985 254.386744 404.086046 
C 251.421683 407.051107 249.755696 411.073157 249.755696 415.266386 
C 249.755696 419.459615 251.421683 423.481665 254.386744 426.446726 
C 257.351805 429.411786 261.373855 431.077774 265.567084 431.077774 
z
" clip-path="url(#pc7a7336e2d)" style="fill: #0096ff; stroke: #000000"/>
    <path d="M 385.972075 381.653505 
C 390.165304 381.653505 394.187354 379.987517 397.152414 377.022456 
C 400.117475 374.057395 401.783463 370.035346 401.783463 365.842116 
C 401.783463 361.648887 400.117475 357.626837 397.152414 354.661776 
C 394.187354 351.696716 390.165304 350.030728 385.972075 350.030728 
C 381.778845 350.030728 377.756795 351.696716 374.791735 354.661776 
C 371.826674 357.626837 370.160686 361.648887 370.160686 365.842116 
C 370.160686 370.035346 371.826674 374.057395 374.791735 377.022456 
C 377.756795 379.987517 381.778845 381.653505 385.972075 381.653505 
z
" clip-path="url(#pc7a7336e2d)" style="fill: #0096ff; stroke: #000000"/>
    <path d="M 435.845455 251.521375 
C 437.17147 251.521375 438.443354 250.994543 439.380988 250.056909 
C 440.318623 249.119274 440.845455 247.84739 440.845455 246.521375 
C 440.845455 245.195359 440.318623 243.923475 439.380988 242.985841 
C 438.443354 242.048206 437.17147 241.521375 435.845455 241.521375 
C 434.519439 241.521375 433.247555 242.048206 432.309921 242.985841 
C 431.372286 243.923475 430.845455 245.195359 430.845455 246.521375 
C 430.845455 247.84739 431.372286 249.119274 432.309921 250.056909 
C 433.247555 250.994543 434.519439 251.521375 435.845455 251.521375 
z
" clip-path="url(#pc7a7336e2d)" style="fill: #0096ff; stroke: #000000"/>
    <path d="M 385.972075 132.200633 
C 387.29809 132.200633 388.569974 131.673802 389.507608 130.736167 
C 390.445243 129.798532 390.972075 128.526649 390.972075 127.200633 
C 390.972075 125.874618 390.445243 124.602734 389.507608 123.665099 
C 388.569974 122.727465 387.29809 122.200633 385.972075 122.200633 
C 384.646059 122.200633 383.374175 122.727465 382.436541 123.665099 
C 381.498906 124.602734 380.972075 125.874618 380.972075 127.200633 
C 380.972075 128.526649 381.498906 129.798532 382.436541 130.736167 
C 383.374175 131.673802 384.646059 132.200633 385.972075 132.200633 
z
" clip-path="url(#pc7a7336e2d)" style="fill: #0096ff; stroke: #000000"/>
   </g>
   <g id="text_1">
    <g clip-path="url(#pc7a7336e2d)">
     <!-- 0 -->
     <g transform="translate(261.749584 81.087614)scale(0.12 -0.12)">
      <defs>
       <path id="DejaVuSans-30" d="M 2034 4250 
Q 1547 4250 1301 3770 
Q 1056 3291 1056 2328 
Q 1056 1369 1301 889 
Q 1547 409 2034 409 
Q 2525 409 2770 889 
Q 3016 1369 3016 2328 
Q 3016 3291 2770 3770 
Q 2525 4250 2034 4250 
z
M 2034 4750 
Q 2819 4750 3233 4129 
Q 3647 3509 3647 2328 
Q 3647 1150 3233 529 
Q 2819 -91 2034 -91 
Q 1250 -91 836 529 
Q 422 1150 422 2328 
Q 422 3509 836 4129 
Q 1250 4750 2034 4750 
z
" transform="scale(0.015625)"/>
      </defs>
      <use xlink:href="#DejaVuSans-30"/>
     </g>
    </g>
   </g>
   <g id="text_2">
    <g clip-path="url(#pc7a7336e2d)">
     <!-- 1 -->
     <g transform="translate(141.344594 130.511883)scale(0.12 -0.12)">
      <defs>
       <path id="DejaVuSans-31" d="M 794 531 
L 1825 531 
L 1825 4091 
L 703 3866 
L 703 4441 
L 1819 4666 
L 2450 4666 
L 2450 531 
L 3481 531 
L 3481 0 
L 794 0 
L 794 531 
z
" transform="scale(0.015625)"/>
      </defs>
      <use xlink:href="#DejaVuSans-31"/>
     </g>
    </g>
   </g>
   <g id="text_3">
    <g clip-path="url(#pc7a7336e2d)">
     <!-- 2 -->
     <g transform="translate(91.471214 249.832625)scale(0.12 -0.12)">
      <defs>
       <path id="DejaVuSans-32" d="M 1228 531 
L 3431 531 
L 3431 0 
L 469 0 
L 469 531 
Q 828 903 1448 1529 
Q 2069 2156 2228 2338 
Q 2531 2678 2651 2914 
Q 2772 3150 2772 3378 
Q 2772 3750 2511 3984 
Q 2250 4219 1831 4219 
Q 1534 4219 1204 4116 
Q 875 4013 500 3803 
L 500 4441 
Q 881 4594 1212 4672 
Q 1544 4750 1819 4750 
Q 2544 4750 2975 4387 
Q 3406 4025 3406 3419 
Q 3406 3131 3298 2873 
Q 3191 2616 2906 2266 
Q 2828 2175 2409 1742 
Q 1991 1309 1228 531 
z
" transform="scale(0.015625)"/>
      </defs>
      <use xlink:href="#DejaVuSans-32"/>
     </g>
    </g>
   </g>
   <g id="text_4">
    <g clip-path="url(#pc7a7336e2d)">
     <!-- 3 -->
     <g transform="translate(141.344594 369.153366)scale(0.12 -0.12)">
      <defs>
       <path id="DejaVuSans-33" d="M 2597 2516 
Q 3050 2419 3304 2112 
Q 3559 1806 3559 1356 
Q 3559 666 3084 287 
Q 2609 -91 1734 -91 
Q 1441 -91 1130 -33 
Q 819 25 488 141 
L 488 750 
Q 750 597 1062 519 
Q 1375 441 1716 441 
Q 2309 441 2620 675 
Q 2931 909 2931 1356 
Q 2931 1769 2642 2001 
Q 2353 2234 1838 2234 
L 1294 2234 
L 1294 2753 
L 1863 2753 
Q 2328 2753 2575 2939 
Q 2822 3125 2822 3475 
Q 2822 3834 2567 4026 
Q 2313 4219 1838 4219 
Q 1578 4219 1281 4162 
Q 984 4106 628 3988 
L 628 4550 
Q 988 4650 1302 4700 
Q 1616 4750 1894 4750 
Q 2613 4750 3031 4423 
Q 3450 4097 3450 3541 
Q 3450 3153 3228 2886 
Q 3006 2619 2597 2516 
z
" transform="scale(0.015625)"/>
      </defs>
      <use xlink:href="#DejaVuSans-33"/>
     </g>
    </g>
   </g>
   <g id="text_5">
    <g clip-path="url(#pc7a7336e2d)">
     <!-- 4 -->
     <g transform="translate(261.749584 418.577636)scale(0.12 -0.12)">
      <defs>
       <path id="DejaVuSans-34" d="M 2419 4116 
L 825 1625 
L 2419 1625 
L 2419 4116 
z
M 2253 4666 
L 3047 4666 
L 3047 1625 
L 3713 1625 
L 3713 1100 
L 3047 1100 
L 3047 0 
L 2419 0 
L 2419 1100 
L 313 1100 
L 313 1709 
L 2253 4666 
z
" transform="scale(0.015625)"/>
      </defs>
      <use xlink:href="#DejaVuSans-34"/>
     </g>
    </g>
   </g>
   <g id="text_6">
    <g clip-path="url(#pc7a7336e2d)">
     <!-- 5 -->
     <g transform="translate(382.154575 369.153366)scale(0.12 -0.12)">
      <defs>
       <path id="DejaVuSans-35" d="M 691 4666 
L 3169 4666 
L 3169 4134 
L 1269 4134 
L 1269 2991 
Q 1406 3038 1543 3061 
Q 1681 3084 1819 3084 
Q 2600 3084 3056 2656 
Q 3513 2228 3513 1497 
Q 3513 744 3044 326 
Q 2575 -91 1722 -91 
Q 1428 -91 1123 -41 
Q 819 9 494 109 
L 494 744 
Q 775 591 1075 516 
Q 1375 441 1709 441 
Q 2250 441 2565 725 
Q 2881 1009 2881 1497 
Q 2881 1984 2565 2268 
Q 2250 2553 1709 2553 
Q 1456 2553 1204 2497 
Q 953 2441 691 2322 
L 691 4666 
z
" transform="scale(0.015625)"/>
      </defs>
      <use xlink:href="#DejaVuSans-35"/>
     </g>
    </g>
   </g>
   <g id="text_7">
    <g clip-path="url(#pc7a7336e2d)">
     <!-- 6 -->
     <g transform="translate(432.027955 249.832625)scale(0.12 -0.12)">
      <defs>
       <path id="DejaVuSans-36" d="M 2113 2584 
Q 1688 2584 1439 2293 
Q 1191 2003 1191 1497 
Q 1191 994 1439 701 
Q 1688 409 2113 409 
Q 2538 409 2786 701 
Q 3034 994 3034 1497 
Q 3034 2003 2786 2293 
Q 2538 2584 2113 2584 
z
M 3366 4563 
L 3366 3988 
Q 3128 4100 2886 4159 
Q 2644 4219 2406 4219 
Q 1781 4219 1451 3797 
Q 1122 3375 1075 2522 
Q 1259 2794 1537 2939 
Q 1816 3084 2150 3084 
Q 2853 3084 3261 2657 
Q 3669 2231 3669 1497 
Q 3669 778 3244 343 
Q 2819 -91 2113 -91 
Q 1303 -91 875 529 
Q 447 1150 447 2328 
Q 447 3434 972 4092 
Q 1497 4750 2381 4750 
Q 2619 4750 2861 4703 
Q 3103 4656 3366 4563 
z
" transform="scale(0.015625)"/>
      </defs>
      <use xlink:href="#DejaVuSans-36"/>
     </g>
    </g>
   </g>
   <g id="text_8">
    <g clip-path="url(#pc7a7336e2d)">
     <!-- 7 -->
     <g transform="translate(382.154575 130.511883)scale(0.12 -0.12)">
      <defs>
       <path id="DejaVuSans-37" d="M 525 4666 
L 3525 4666 
L 3525 4397 
L 1831 0 
L 1172 0 
L 2766 4134 
L 525 4134 
L 525 4666 
z
" transform="scale(0.015625)"/>
      </defs>
      <use xlink:href="#DejaVuSans-37"/>
     </g>
    </g>
   </g>
  </g>
 </g>
 <defs>
  <clipPath id="pc7a7336e2d">
   <rect x="63" y="60.48" width="390.6" height="380.52"/>
  </clipPath>
 </defs>
</svg>
