<?xml version="1.0" encoding="utf-8" standalone="no"?>
<!DOCTYPE svg PUBLIC "-//W3C//DTD SVG 1.1//EN"
  "http://www.w3.org/Graphics/SVG/1.1/DTD/svg11.dtd">
<svg height="505.679993pt" version="1.1" viewBox="0 0 1049.797385 505.679993" width="1049.797385pt" xmlns="http://www.w3.org/2000/svg" xmlns:xlink="http://www.w3.org/1999/xlink">
 <metadata>
  <rdf:RDF xmlns:cc="http://creativecommons.org/ns#" xmlns:dc="http://purl.org/dc/elements/1.1/" xmlns:rdf="http://www.w3.org/1999/02/22-rdf-syntax-ns#">
   <cc:Work>
    <dc:type rdf:resource="http://purl.org/dc/dcmitype/StillImage"/>
    <dc:date>2022-01-26T14:21:23.030356</dc:date>
    <dc:format>image/svg+xml</dc:format>
    <dc:creator>
     <cc:Agent>
      <dc:title>Matplotlib v3.4.3, https://matplotlib.org/</dc:title>
     </cc:Agent>
    </dc:creator>
   </cc:Work>
  </rdf:RDF>
 </metadata>
 <defs>
  <style type="text/css">*{stroke-linecap:butt;stroke-linejoin:round;}</style>
 </defs>
 <g id="figure_1">
  <g id="patch_1">
   <path d="M 0 505.679993 
L 1049.797385 505.679993 
L 1049.797385 0 
L 0 0 
z
" style="fill:#ffffff;"/>
  </g>
  <g id="axes_1">
   <g id="line2d_1">
    <path clip-path="url(#p725fad8f81)" d="M 198.013482 97.042399 
L 929.774573 97.042399 
" style="fill:none;stroke:#000000;stroke-linecap:round;stroke-width:2;"/>
   </g>
   <g id="line2d_2">
    <path clip-path="url(#p725fad8f81)" d="M 198.013482 142.493398 
L 929.774573 142.493398 
" style="fill:none;stroke:#000000;stroke-linecap:round;stroke-width:2;"/>
   </g>
   <g id="line2d_3">
    <path clip-path="url(#p725fad8f81)" d="M 198.013482 187.944398 
L 929.774573 187.944398 
" style="fill:none;stroke:#000000;stroke-linecap:round;stroke-width:2;"/>
   </g>
   <g id="line2d_4">
    <path clip-path="url(#p725fad8f81)" d="M 198.013482 233.395397 
L 929.774573 233.395397 
" style="fill:none;stroke:#000000;stroke-linecap:round;stroke-width:2;"/>
   </g>
   <g id="line2d_5">
    <path clip-path="url(#p725fad8f81)" d="M 198.013482 278.846396 
L 929.774573 278.846396 
" style="fill:none;stroke:#000000;stroke-linecap:round;stroke-width:2;"/>
   </g>
   <g id="line2d_6">
    <path clip-path="url(#p725fad8f81)" d="M 198.013482 324.297396 
L 929.774573 324.297396 
" style="fill:none;stroke:#000000;stroke-linecap:round;stroke-width:2;"/>
   </g>
   <g id="line2d_7">
    <path clip-path="url(#p725fad8f81)" d="M 198.013482 369.748395 
L 929.774573 369.748395 
" style="fill:none;stroke:#000000;stroke-linecap:round;stroke-width:2;"/>
   </g>
   <g id="line2d_8">
    <path clip-path="url(#p725fad8f81)" d="M 198.013482 415.199394 
L 929.774573 415.199394 
" style="fill:none;stroke:#000000;stroke-linecap:round;stroke-width:2;"/>
   </g>
   <g id="patch_2">
    <path clip-path="url(#p725fad8f81)" d="M 206.278747 157.264973 
L 238.835298 157.264973 
L 238.835298 82.270824 
L 206.278747 82.270824 
z
" style="fill:#0096ff;stroke:#0096ff;stroke-linejoin:miter;stroke-width:1.5;"/>
   </g>
   <g id="patch_3">
    <path clip-path="url(#p725fad8f81)" d="M 251.729746 202.715972 
L 284.286297 202.715972 
L 284.286297 127.721823 
L 251.729746 127.721823 
z
" style="fill:#0096ff;stroke:#0096ff;stroke-linejoin:miter;stroke-width:1.5;"/>
   </g>
   <g id="patch_4">
    <path clip-path="url(#p725fad8f81)" d="M 297.180746 248.166972 
L 329.737296 248.166972 
L 329.737296 173.172823 
L 297.180746 173.172823 
z
" style="fill:#0096ff;stroke:#0096ff;stroke-linejoin:miter;stroke-width:1.5;"/>
   </g>
   <g id="patch_5">
    <path clip-path="url(#p725fad8f81)" d="M 342.631745 293.617971 
L 375.188296 293.617971 
L 375.188296 218.623822 
L 342.631745 218.623822 
z
" style="fill:#0096ff;stroke:#0096ff;stroke-linejoin:miter;stroke-width:1.5;"/>
   </g>
   <g id="patch_6">
    <path clip-path="url(#p725fad8f81)" d="M 388.082744 339.06897 
L 420.639295 339.06897 
L 420.639295 264.074821 
L 388.082744 264.074821 
z
" style="fill:#0096ff;stroke:#0096ff;stroke-linejoin:miter;stroke-width:1.5;"/>
   </g>
   <g id="patch_7">
    <path clip-path="url(#p725fad8f81)" d="M 433.533744 384.51997 
L 466.090295 384.51997 
L 466.090295 309.525821 
L 433.533744 309.525821 
z
" style="fill:#0096ff;stroke:#0096ff;stroke-linejoin:miter;stroke-width:1.5;"/>
   </g>
   <g id="patch_8">
    <path clip-path="url(#p725fad8f81)" d="M 478.984743 429.970969 
L 511.541294 429.970969 
L 511.541294 354.97682 
L 478.984743 354.97682 
z
" style="fill:#0096ff;stroke:#0096ff;stroke-linejoin:miter;stroke-width:1.5;"/>
   </g>
   <g id="patch_9">
    <path clip-path="url(#p725fad8f81)" d="M 524.435742 429.970969 
L 556.992293 429.970969 
L 556.992293 82.270824 
L 524.435742 82.270824 
z
" style="fill:#0096ff;stroke:#0096ff;stroke-linejoin:miter;stroke-width:1.5;"/>
   </g>
   <g id="patch_10">
    <path clip-path="url(#p725fad8f81)" d="M 569.270881 157.264973 
L 603.059154 157.264973 
L 603.059154 82.270824 
L 569.270881 82.270824 
z
" style="fill:#ff7e79;stroke:#ff7e79;stroke-linejoin:miter;stroke-width:1.5;"/>
   </g>
   <g id="patch_11">
    <path clip-path="url(#p725fad8f81)" d="M 614.72188 248.166972 
L 648.510153 248.166972 
L 648.510153 173.172823 
L 614.72188 173.172823 
z
" style="fill:#ff7e79;stroke:#ff7e79;stroke-linejoin:miter;stroke-width:1.5;"/>
   </g>
   <g id="patch_12">
    <path clip-path="url(#p725fad8f81)" d="M 660.17288 339.06897 
L 693.961153 339.06897 
L 693.961153 264.074821 
L 660.17288 264.074821 
z
" style="fill:#ff7e79;stroke:#ff7e79;stroke-linejoin:miter;stroke-width:1.5;"/>
   </g>
   <g id="patch_13">
    <path clip-path="url(#p725fad8f81)" d="M 705.623879 429.970969 
L 739.412152 429.970969 
L 739.412152 354.97682 
L 705.623879 354.97682 
z
" style="fill:#ff7e79;stroke:#ff7e79;stroke-linejoin:miter;stroke-width:1.5;"/>
   </g>
   <g id="patch_14">
    <path clip-path="url(#p725fad8f81)" d="M 751.643016 248.166972 
L 784.295014 248.166972 
L 784.295014 127.721823 
L 751.643016 127.721823 
z
" style="fill:#0096ff;stroke:#0096ff;stroke-linejoin:miter;stroke-width:1.5;"/>
   </g>
   <g id="patch_15">
    <path clip-path="url(#p725fad8f81)" d="M 797.094015 339.06897 
L 829.746013 339.06897 
L 829.746013 218.623822 
L 797.094015 218.623822 
z
" style="fill:#0096ff;stroke:#0096ff;stroke-linejoin:miter;stroke-width:1.5;"/>
   </g>
   <g id="patch_16">
    <path clip-path="url(#p725fad8f81)" d="M 842.545015 429.970969 
L 875.197013 429.970969 
L 875.197013 309.525821 
L 842.545015 309.525821 
z
" style="fill:#0096ff;stroke:#0096ff;stroke-linejoin:miter;stroke-width:1.5;"/>
   </g>
   <g id="patch_17">
    <path clip-path="url(#p725fad8f81)" d="M 887.996014 429.970969 
L 920.648012 429.970969 
L 920.648012 127.721823 
L 887.996014 127.721823 
z
" style="fill:#0096ff;stroke:#0096ff;stroke-linejoin:miter;stroke-width:1.5;"/>
   </g>
   <g id="text_1">
    <g clip-path="url(#p725fad8f81)">
     <!-- ${q}_{0}$ -->
     <g transform="translate(170.885783 101.493375)scale(0.1625 -0.1625)">
      <defs>
       <path d="M 2669 525 
Q 2438 222 2123 65 
Q 1809 -91 1428 -91 
Q 897 -91 595 267 
Q 294 625 294 1253 
Q 294 1759 480 2231 
Q 666 2703 1013 3078 
Q 1238 3322 1530 3453 
Q 1822 3584 2144 3584 
Q 2531 3584 2781 3431 
Q 3031 3278 3144 2969 
L 3244 3494 
L 3822 3494 
L 2888 -1319 
L 2309 -1319 
L 2669 525 
z
M 891 1338 
Q 891 875 1084 633 
Q 1278 391 1644 391 
Q 2188 391 2572 911 
Q 2956 1431 2956 2175 
Q 2956 2625 2757 2864 
Q 2559 3103 2188 3103 
Q 1916 3103 1684 2976 
Q 1453 2850 1281 2606 
Q 1100 2350 995 2006 
Q 891 1663 891 1338 
z
" id="DejaVuSans-Oblique-71" transform="scale(0.015625)"/>
       <path d="M 2034 4250 
Q 1547 4250 1301 3770 
Q 1056 3291 1056 2328 
Q 1056 1369 1301 889 
Q 1547 409 2034 409 
Q 2525 409 2770 889 
Q 3016 1369 3016 2328 
Q 3016 3291 2770 3770 
Q 2525 4250 2034 4250 
z
M 2034 4750 
Q 2819 4750 3233 4129 
Q 3647 3509 3647 2328 
Q 3647 1150 3233 529 
Q 2819 -91 2034 -91 
Q 1250 -91 836 529 
Q 422 1150 422 2328 
Q 422 3509 836 4129 
Q 1250 4750 2034 4750 
z
" id="DejaVuSans-30" transform="scale(0.015625)"/>
      </defs>
      <use xlink:href="#DejaVuSans-Oblique-71"/>
      <use transform="translate(63.476562 -16.40625)scale(0.7)" xlink:href="#DejaVuSans-30"/>
     </g>
    </g>
   </g>
   <g id="text_2">
    <g clip-path="url(#p725fad8f81)">
     <!-- ${q}_{1}$ -->
     <g transform="translate(170.885783 146.944375)scale(0.1625 -0.1625)">
      <defs>
       <path d="M 794 531 
L 1825 531 
L 1825 4091 
L 703 3866 
L 703 4441 
L 1819 4666 
L 2450 4666 
L 2450 531 
L 3481 531 
L 3481 0 
L 794 0 
L 794 531 
z
" id="DejaVuSans-31" transform="scale(0.015625)"/>
      </defs>
      <use xlink:href="#DejaVuSans-Oblique-71"/>
      <use transform="translate(63.476562 -16.40625)scale(0.7)" xlink:href="#DejaVuSans-31"/>
     </g>
    </g>
   </g>
   <g id="text_3">
    <g clip-path="url(#p725fad8f81)">
     <!-- ${q}_{2}$ -->
     <g transform="translate(170.885783 192.395374)scale(0.1625 -0.1625)">
      <defs>
       <path d="M 1228 531 
L 3431 531 
L 3431 0 
L 469 0 
L 469 531 
Q 828 903 1448 1529 
Q 2069 2156 2228 2338 
Q 2531 2678 2651 2914 
Q 2772 3150 2772 3378 
Q 2772 3750 2511 3984 
Q 2250 4219 1831 4219 
Q 1534 4219 1204 4116 
Q 875 4013 500 3803 
L 500 4441 
Q 881 4594 1212 4672 
Q 1544 4750 1819 4750 
Q 2544 4750 2975 4387 
Q 3406 4025 3406 3419 
Q 3406 3131 3298 2873 
Q 3191 2616 2906 2266 
Q 2828 2175 2409 1742 
Q 1991 1309 1228 531 
z
" id="DejaVuSans-32" transform="scale(0.015625)"/>
      </defs>
      <use xlink:href="#DejaVuSans-Oblique-71"/>
      <use transform="translate(63.476562 -16.40625)scale(0.7)" xlink:href="#DejaVuSans-32"/>
     </g>
    </g>
   </g>
   <g id="text_4">
    <g clip-path="url(#p725fad8f81)">
     <!-- ${q}_{3}$ -->
     <g transform="translate(170.885783 237.846373)scale(0.1625 -0.1625)">
      <defs>
       <path d="M 2597 2516 
Q 3050 2419 3304 2112 
Q 3559 1806 3559 1356 
Q 3559 666 3084 287 
Q 2609 -91 1734 -91 
Q 1441 -91 1130 -33 
Q 819 25 488 141 
L 488 750 
Q 750 597 1062 519 
Q 1375 441 1716 441 
Q 2309 441 2620 675 
Q 2931 909 2931 1356 
Q 2931 1769 2642 2001 
Q 2353 2234 1838 2234 
L 1294 2234 
L 1294 2753 
L 1863 2753 
Q 2328 2753 2575 2939 
Q 2822 3125 2822 3475 
Q 2822 3834 2567 4026 
Q 2313 4219 1838 4219 
Q 1578 4219 1281 4162 
Q 984 4106 628 3988 
L 628 4550 
Q 988 4650 1302 4700 
Q 1616 4750 1894 4750 
Q 2613 4750 3031 4423 
Q 3450 4097 3450 3541 
Q 3450 3153 3228 2886 
Q 3006 2619 2597 2516 
z
" id="DejaVuSans-33" transform="scale(0.015625)"/>
      </defs>
      <use xlink:href="#DejaVuSans-Oblique-71"/>
      <use transform="translate(63.476562 -16.40625)scale(0.7)" xlink:href="#DejaVuSans-33"/>
     </g>
    </g>
   </g>
   <g id="text_5">
    <g clip-path="url(#p725fad8f81)">
     <!-- ${q}_{4}$ -->
     <g transform="translate(170.885783 283.297373)scale(0.1625 -0.1625)">
      <defs>
       <path d="M 2419 4116 
L 825 1625 
L 2419 1625 
L 2419 4116 
z
M 2253 4666 
L 3047 4666 
L 3047 1625 
L 3713 1625 
L 3713 1100 
L 3047 1100 
L 3047 0 
L 2419 0 
L 2419 1100 
L 313 1100 
L 313 1709 
L 2253 4666 
z
" id="DejaVuSans-34" transform="scale(0.015625)"/>
      </defs>
      <use xlink:href="#DejaVuSans-Oblique-71"/>
      <use transform="translate(63.476562 -16.40625)scale(0.7)" xlink:href="#DejaVuSans-34"/>
     </g>
    </g>
   </g>
   <g id="text_6">
    <g clip-path="url(#p725fad8f81)">
     <!-- ${q}_{5}$ -->
     <g transform="translate(170.885783 328.748372)scale(0.1625 -0.1625)">
      <defs>
       <path d="M 691 4666 
L 3169 4666 
L 3169 4134 
L 1269 4134 
L 1269 2991 
Q 1406 3038 1543 3061 
Q 1681 3084 1819 3084 
Q 2600 3084 3056 2656 
Q 3513 2228 3513 1497 
Q 3513 744 3044 326 
Q 2575 -91 1722 -91 
Q 1428 -91 1123 -41 
Q 819 9 494 109 
L 494 744 
Q 775 591 1075 516 
Q 1375 441 1709 441 
Q 2250 441 2565 725 
Q 2881 1009 2881 1497 
Q 2881 1984 2565 2268 
Q 2250 2553 1709 2553 
Q 1456 2553 1204 2497 
Q 953 2441 691 2322 
L 691 4666 
z
" id="DejaVuSans-35" transform="scale(0.015625)"/>
      </defs>
      <use xlink:href="#DejaVuSans-Oblique-71"/>
      <use transform="translate(63.476562 -16.40625)scale(0.7)" xlink:href="#DejaVuSans-35"/>
     </g>
    </g>
   </g>
   <g id="text_7">
    <g clip-path="url(#p725fad8f81)">
     <!-- ${q}_{6}$ -->
     <g transform="translate(170.885783 374.199372)scale(0.1625 -0.1625)">
      <defs>
       <path d="M 2113 2584 
Q 1688 2584 1439 2293 
Q 1191 2003 1191 1497 
Q 1191 994 1439 701 
Q 1688 409 2113 409 
Q 2538 409 2786 701 
Q 3034 994 3034 1497 
Q 3034 2003 2786 2293 
Q 2538 2584 2113 2584 
z
M 3366 4563 
L 3366 3988 
Q 3128 4100 2886 4159 
Q 2644 4219 2406 4219 
Q 1781 4219 1451 3797 
Q 1122 3375 1075 2522 
Q 1259 2794 1537 2939 
Q 1816 3084 2150 3084 
Q 2853 3084 3261 2657 
Q 3669 2231 3669 1497 
Q 3669 778 3244 343 
Q 2819 -91 2113 -91 
Q 1303 -91 875 529 
Q 447 1150 447 2328 
Q 447 3434 972 4092 
Q 1497 4750 2381 4750 
Q 2619 4750 2861 4703 
Q 3103 4656 3366 4563 
z
" id="DejaVuSans-36" transform="scale(0.015625)"/>
      </defs>
      <use xlink:href="#DejaVuSans-Oblique-71"/>
      <use transform="translate(63.476562 -16.40625)scale(0.7)" xlink:href="#DejaVuSans-36"/>
     </g>
    </g>
   </g>
   <g id="text_8">
    <g clip-path="url(#p725fad8f81)">
     <!-- ${q}_{7}$ -->
     <g transform="translate(170.885783 419.650371)scale(0.1625 -0.1625)">
      <defs>
       <path d="M 525 4666 
L 3525 4666 
L 3525 4397 
L 1831 0 
L 1172 0 
L 2766 4134 
L 525 4134 
L 525 4666 
z
" id="DejaVuSans-37" transform="scale(0.015625)"/>
      </defs>
      <use xlink:href="#DejaVuSans-Oblique-71"/>
      <use transform="translate(63.476562 -16.40625)scale(0.7)" xlink:href="#DejaVuSans-37"/>
     </g>
    </g>
   </g>
   <g id="text_9">
    <g clip-path="url(#p725fad8f81)">
     <!-- 0 -->
     <g transform="translate(209.460317 100.629586)scale(0.13 -0.13)">
      <use xlink:href="#DejaVuSans-30"/>
     </g>
    </g>
   </g>
   <g id="text_10">
    <g clip-path="url(#p725fad8f81)">
     <!-- 1 -->
     <g transform="translate(209.460317 146.080586)scale(0.13 -0.13)">
      <use xlink:href="#DejaVuSans-31"/>
     </g>
    </g>
   </g>
   <g id="text_11">
    <g clip-path="url(#p725fad8f81)">
     <!-- c_1 -->
     <g transform="translate(216.597023 122.993523)scale(0.13 -0.13)">
      <defs>
       <path d="M 3122 3366 
L 3122 2828 
Q 2878 2963 2633 3030 
Q 2388 3097 2138 3097 
Q 1578 3097 1268 2742 
Q 959 2388 959 1747 
Q 959 1106 1268 751 
Q 1578 397 2138 397 
Q 2388 397 2633 464 
Q 2878 531 3122 666 
L 3122 134 
Q 2881 22 2623 -34 
Q 2366 -91 2075 -91 
Q 1284 -91 818 406 
Q 353 903 353 1747 
Q 353 2603 823 3093 
Q 1294 3584 2113 3584 
Q 2378 3584 2631 3529 
Q 2884 3475 3122 3366 
z
" id="DejaVuSans-63" transform="scale(0.015625)"/>
       <path d="M 3263 -1063 
L 3263 -1509 
L -63 -1509 
L -63 -1063 
L 3263 -1063 
z
" id="DejaVuSans-5f" transform="scale(0.015625)"/>
      </defs>
      <use xlink:href="#DejaVuSans-63"/>
      <use x="54.980469" xlink:href="#DejaVuSans-5f"/>
      <use x="104.980469" xlink:href="#DejaVuSans-31"/>
     </g>
    </g>
   </g>
   <g id="text_12">
    <g clip-path="url(#p725fad8f81)">
     <!-- 0 -->
     <g transform="translate(254.911316 146.080586)scale(0.13 -0.13)">
      <use xlink:href="#DejaVuSans-30"/>
     </g>
    </g>
   </g>
   <g id="text_13">
    <g clip-path="url(#p725fad8f81)">
     <!-- 1 -->
     <g transform="translate(254.911316 191.531585)scale(0.13 -0.13)">
      <use xlink:href="#DejaVuSans-31"/>
     </g>
    </g>
   </g>
   <g id="text_14">
    <g clip-path="url(#p725fad8f81)">
     <!-- c_1 -->
     <g transform="translate(262.048022 168.444523)scale(0.13 -0.13)">
      <use xlink:href="#DejaVuSans-63"/>
      <use x="54.980469" xlink:href="#DejaVuSans-5f"/>
      <use x="104.980469" xlink:href="#DejaVuSans-31"/>
     </g>
    </g>
   </g>
   <g id="text_15">
    <g clip-path="url(#p725fad8f81)">
     <!-- 0 -->
     <g transform="translate(300.362315 191.531585)scale(0.13 -0.13)">
      <use xlink:href="#DejaVuSans-30"/>
     </g>
    </g>
   </g>
   <g id="text_16">
    <g clip-path="url(#p725fad8f81)">
     <!-- 1 -->
     <g transform="translate(300.362315 236.982584)scale(0.13 -0.13)">
      <use xlink:href="#DejaVuSans-31"/>
     </g>
    </g>
   </g>
   <g id="text_17">
    <g clip-path="url(#p725fad8f81)">
     <!-- c_1 -->
     <g transform="translate(307.499022 213.895522)scale(0.13 -0.13)">
      <use xlink:href="#DejaVuSans-63"/>
      <use x="54.980469" xlink:href="#DejaVuSans-5f"/>
      <use x="104.980469" xlink:href="#DejaVuSans-31"/>
     </g>
    </g>
   </g>
   <g id="text_18">
    <g clip-path="url(#p725fad8f81)">
     <!-- 0 -->
     <g transform="translate(345.813315 236.982584)scale(0.13 -0.13)">
      <use xlink:href="#DejaVuSans-30"/>
     </g>
    </g>
   </g>
   <g id="text_19">
    <g clip-path="url(#p725fad8f81)">
     <!-- 1 -->
     <g transform="translate(345.813315 282.433584)scale(0.13 -0.13)">
      <use xlink:href="#DejaVuSans-31"/>
     </g>
    </g>
   </g>
   <g id="text_20">
    <g clip-path="url(#p725fad8f81)">
     <!-- c_1 -->
     <g transform="translate(352.950021 259.346522)scale(0.13 -0.13)">
      <use xlink:href="#DejaVuSans-63"/>
      <use x="54.980469" xlink:href="#DejaVuSans-5f"/>
      <use x="104.980469" xlink:href="#DejaVuSans-31"/>
     </g>
    </g>
   </g>
   <g id="text_21">
    <g clip-path="url(#p725fad8f81)">
     <!-- 0 -->
     <g transform="translate(391.264314 282.433584)scale(0.13 -0.13)">
      <use xlink:href="#DejaVuSans-30"/>
     </g>
    </g>
   </g>
   <g id="text_22">
    <g clip-path="url(#p725fad8f81)">
     <!-- 1 -->
     <g transform="translate(391.264314 327.884583)scale(0.13 -0.13)">
      <use xlink:href="#DejaVuSans-31"/>
     </g>
    </g>
   </g>
   <g id="text_23">
    <g clip-path="url(#p725fad8f81)">
     <!-- c_1 -->
     <g transform="translate(398.40102 304.797521)scale(0.13 -0.13)">
      <use xlink:href="#DejaVuSans-63"/>
      <use x="54.980469" xlink:href="#DejaVuSans-5f"/>
      <use x="104.980469" xlink:href="#DejaVuSans-31"/>
     </g>
    </g>
   </g>
   <g id="text_24">
    <g clip-path="url(#p725fad8f81)">
     <!-- 0 -->
     <g transform="translate(436.715314 327.884583)scale(0.13 -0.13)">
      <use xlink:href="#DejaVuSans-30"/>
     </g>
    </g>
   </g>
   <g id="text_25">
    <g clip-path="url(#p725fad8f81)">
     <!-- 1 -->
     <g transform="translate(436.715314 373.335583)scale(0.13 -0.13)">
      <use xlink:href="#DejaVuSans-31"/>
     </g>
    </g>
   </g>
   <g id="text_26">
    <g clip-path="url(#p725fad8f81)">
     <!-- c_1 -->
     <g transform="translate(443.85202 350.24852)scale(0.13 -0.13)">
      <use xlink:href="#DejaVuSans-63"/>
      <use x="54.980469" xlink:href="#DejaVuSans-5f"/>
      <use x="104.980469" xlink:href="#DejaVuSans-31"/>
     </g>
    </g>
   </g>
   <g id="text_27">
    <g clip-path="url(#p725fad8f81)">
     <!-- 0 -->
     <g transform="translate(482.166313 373.335583)scale(0.13 -0.13)">
      <use xlink:href="#DejaVuSans-30"/>
     </g>
    </g>
   </g>
   <g id="text_28">
    <g clip-path="url(#p725fad8f81)">
     <!-- 1 -->
     <g transform="translate(482.166313 418.786582)scale(0.13 -0.13)">
      <use xlink:href="#DejaVuSans-31"/>
     </g>
    </g>
   </g>
   <g id="text_29">
    <g clip-path="url(#p725fad8f81)">
     <!-- c_1 -->
     <g transform="translate(489.303019 395.69952)scale(0.13 -0.13)">
      <use xlink:href="#DejaVuSans-63"/>
      <use x="54.980469" xlink:href="#DejaVuSans-5f"/>
      <use x="104.980469" xlink:href="#DejaVuSans-31"/>
     </g>
    </g>
   </g>
   <g id="text_30">
    <g clip-path="url(#p725fad8f81)">
     <!-- 0 -->
     <g transform="translate(527.617312 418.786582)scale(0.13 -0.13)">
      <use xlink:href="#DejaVuSans-30"/>
     </g>
    </g>
   </g>
   <g id="text_31">
    <g clip-path="url(#p725fad8f81)">
     <!-- 1 -->
     <g transform="translate(527.617312 100.629586)scale(0.13 -0.13)">
      <use xlink:href="#DejaVuSans-31"/>
     </g>
    </g>
   </g>
   <g id="text_32">
    <g clip-path="url(#p725fad8f81)">
     <!-- c_1 -->
     <g transform="translate(534.754018 259.346522)scale(0.13 -0.13)">
      <use xlink:href="#DejaVuSans-63"/>
      <use x="54.980469" xlink:href="#DejaVuSans-5f"/>
      <use x="104.980469" xlink:href="#DejaVuSans-31"/>
     </g>
    </g>
   </g>
   <g id="text_33">
    <g clip-path="url(#p725fad8f81)">
     <!-- 0 -->
     <g transform="translate(572.452451 100.629586)scale(0.13 -0.13)">
      <use xlink:href="#DejaVuSans-30"/>
     </g>
    </g>
   </g>
   <g id="text_34">
    <g clip-path="url(#p725fad8f81)">
     <!-- 1 -->
     <g transform="translate(572.452451 146.080586)scale(0.13 -0.13)">
      <use xlink:href="#DejaVuSans-31"/>
     </g>
    </g>
   </g>
   <g id="text_35">
    <g clip-path="url(#p725fad8f81)">
     <!-- p_1 -->
     <g transform="translate(579.652518 122.993523)scale(0.13 -0.13)">
      <defs>
       <path d="M 1159 525 
L 1159 -1331 
L 581 -1331 
L 581 3500 
L 1159 3500 
L 1159 2969 
Q 1341 3281 1617 3432 
Q 1894 3584 2278 3584 
Q 2916 3584 3314 3078 
Q 3713 2572 3713 1747 
Q 3713 922 3314 415 
Q 2916 -91 2278 -91 
Q 1894 -91 1617 61 
Q 1341 213 1159 525 
z
M 3116 1747 
Q 3116 2381 2855 2742 
Q 2594 3103 2138 3103 
Q 1681 3103 1420 2742 
Q 1159 2381 1159 1747 
Q 1159 1113 1420 752 
Q 1681 391 2138 391 
Q 2594 391 2855 752 
Q 3116 1113 3116 1747 
z
" id="DejaVuSans-70" transform="scale(0.015625)"/>
      </defs>
      <use xlink:href="#DejaVuSans-70"/>
      <use x="63.476562" xlink:href="#DejaVuSans-5f"/>
      <use x="113.476562" xlink:href="#DejaVuSans-31"/>
     </g>
    </g>
   </g>
   <g id="text_36">
    <g clip-path="url(#p725fad8f81)">
     <!-- 0 -->
     <g transform="translate(617.90345 191.531585)scale(0.13 -0.13)">
      <use xlink:href="#DejaVuSans-30"/>
     </g>
    </g>
   </g>
   <g id="text_37">
    <g clip-path="url(#p725fad8f81)">
     <!-- 1 -->
     <g transform="translate(617.90345 236.982584)scale(0.13 -0.13)">
      <use xlink:href="#DejaVuSans-31"/>
     </g>
    </g>
   </g>
   <g id="text_38">
    <g clip-path="url(#p725fad8f81)">
     <!-- p_1 -->
     <g transform="translate(625.103517 213.895522)scale(0.13 -0.13)">
      <use xlink:href="#DejaVuSans-70"/>
      <use x="63.476562" xlink:href="#DejaVuSans-5f"/>
      <use x="113.476562" xlink:href="#DejaVuSans-31"/>
     </g>
    </g>
   </g>
   <g id="text_39">
    <g clip-path="url(#p725fad8f81)">
     <!-- 0 -->
     <g transform="translate(663.35445 282.433584)scale(0.13 -0.13)">
      <use xlink:href="#DejaVuSans-30"/>
     </g>
    </g>
   </g>
   <g id="text_40">
    <g clip-path="url(#p725fad8f81)">
     <!-- 1 -->
     <g transform="translate(663.35445 327.884583)scale(0.13 -0.13)">
      <use xlink:href="#DejaVuSans-31"/>
     </g>
    </g>
   </g>
   <g id="text_41">
    <g clip-path="url(#p725fad8f81)">
     <!-- p_1 -->
     <g transform="translate(670.554517 304.797521)scale(0.13 -0.13)">
      <use xlink:href="#DejaVuSans-70"/>
      <use x="63.476562" xlink:href="#DejaVuSans-5f"/>
      <use x="113.476562" xlink:href="#DejaVuSans-31"/>
     </g>
    </g>
   </g>
   <g id="text_42">
    <g clip-path="url(#p725fad8f81)">
     <!-- 0 -->
     <g transform="translate(708.805449 373.335583)scale(0.13 -0.13)">
      <use xlink:href="#DejaVuSans-30"/>
     </g>
    </g>
   </g>
   <g id="text_43">
    <g clip-path="url(#p725fad8f81)">
     <!-- 1 -->
     <g transform="translate(708.805449 418.786582)scale(0.13 -0.13)">
      <use xlink:href="#DejaVuSans-31"/>
     </g>
    </g>
   </g>
   <g id="text_44">
    <g clip-path="url(#p725fad8f81)">
     <!-- p_1 -->
     <g transform="translate(716.005516 395.69952)scale(0.13 -0.13)">
      <use xlink:href="#DejaVuSans-70"/>
      <use x="63.476562" xlink:href="#DejaVuSans-5f"/>
      <use x="113.476562" xlink:href="#DejaVuSans-31"/>
     </g>
    </g>
   </g>
   <g id="text_45">
    <g clip-path="url(#p725fad8f81)">
     <!-- 0 -->
     <g transform="translate(754.824586 146.080586)scale(0.13 -0.13)">
      <use xlink:href="#DejaVuSans-30"/>
     </g>
    </g>
   </g>
   <g id="text_46">
    <g clip-path="url(#p725fad8f81)">
     <!-- 1 -->
     <g transform="translate(754.824586 236.982584)scale(0.13 -0.13)">
      <use xlink:href="#DejaVuSans-31"/>
     </g>
    </g>
   </g>
   <g id="text_47">
    <g clip-path="url(#p725fad8f81)">
     <!-- c_2 -->
     <g transform="translate(762.009015 191.236038)scale(0.13 -0.13)">
      <use xlink:href="#DejaVuSans-63"/>
      <use x="54.980469" xlink:href="#DejaVuSans-5f"/>
      <use x="104.980469" xlink:href="#DejaVuSans-32"/>
     </g>
    </g>
   </g>
   <g id="text_48">
    <g clip-path="url(#p725fad8f81)">
     <!-- 0 -->
     <g transform="translate(800.275585 236.982584)scale(0.13 -0.13)">
      <use xlink:href="#DejaVuSans-30"/>
     </g>
    </g>
   </g>
   <g id="text_49">
    <g clip-path="url(#p725fad8f81)">
     <!-- 1 -->
     <g transform="translate(800.275585 327.884583)scale(0.13 -0.13)">
      <use xlink:href="#DejaVuSans-31"/>
     </g>
    </g>
   </g>
   <g id="text_50">
    <g clip-path="url(#p725fad8f81)">
     <!-- c_2 -->
     <g transform="translate(807.460015 282.138037)scale(0.13 -0.13)">
      <use xlink:href="#DejaVuSans-63"/>
      <use x="54.980469" xlink:href="#DejaVuSans-5f"/>
      <use x="104.980469" xlink:href="#DejaVuSans-32"/>
     </g>
    </g>
   </g>
   <g id="text_51">
    <g clip-path="url(#p725fad8f81)">
     <!-- 0 -->
     <g transform="translate(845.726585 327.884583)scale(0.13 -0.13)">
      <use xlink:href="#DejaVuSans-30"/>
     </g>
    </g>
   </g>
   <g id="text_52">
    <g clip-path="url(#p725fad8f81)">
     <!-- 1 -->
     <g transform="translate(845.726585 418.786582)scale(0.13 -0.13)">
      <use xlink:href="#DejaVuSans-31"/>
     </g>
    </g>
   </g>
   <g id="text_53">
    <g clip-path="url(#p725fad8f81)">
     <!-- c_2 -->
     <g transform="translate(852.911014 373.040036)scale(0.13 -0.13)">
      <use xlink:href="#DejaVuSans-63"/>
      <use x="54.980469" xlink:href="#DejaVuSans-5f"/>
      <use x="104.980469" xlink:href="#DejaVuSans-32"/>
     </g>
    </g>
   </g>
   <g id="text_54">
    <g clip-path="url(#p725fad8f81)">
     <!-- 0 -->
     <g transform="translate(891.177584 418.786582)scale(0.13 -0.13)">
      <use xlink:href="#DejaVuSans-30"/>
     </g>
    </g>
   </g>
   <g id="text_55">
    <g clip-path="url(#p725fad8f81)">
     <!-- 1 -->
     <g transform="translate(891.177584 146.080586)scale(0.13 -0.13)">
      <use xlink:href="#DejaVuSans-31"/>
     </g>
    </g>
   </g>
   <g id="text_56">
    <g clip-path="url(#p725fad8f81)">
     <!-- c_2 -->
     <g transform="translate(898.362014 282.138037)scale(0.13 -0.13)">
      <use xlink:href="#DejaVuSans-63"/>
      <use x="54.980469" xlink:href="#DejaVuSans-5f"/>
      <use x="104.980469" xlink:href="#DejaVuSans-32"/>
     </g>
    </g>
   </g>
  </g>
 </g>
 <defs>
  <clipPath id="p725fad8f81">
   <rect height="381.788395" width="792.597026" x="141.722647" y="60.681599"/>
  </clipPath>
 </defs>
</svg>
